<svg width="14" height="14" viewBox="0 0 14 14" fill="none" xmlns="http://www.w3.org/2000/svg">
<path fill-rule="evenodd" clip-rule="evenodd" d="M12.5902 8.11364H13.7083V9.22727H12.5902V9.78409C12.5902 10.8365 11.8518 11.7157 10.8651 11.9473L11.7517 13.125H10.3541L9.51558 12.0114H4.48433L3.64579 13.125H2.24822L3.13484 11.9473C2.14816 11.7157 1.40968 10.8365 1.40968 9.78409V9.22727H0.291626V8.11364H11.4722V2.54545C11.4722 2.23865 11.2212 1.98864 10.9132 1.98864H8.11801V2.54545H6.99996V0.875H10.9132C11.8378 0.875 12.5902 1.62448 12.5902 2.54545V8.11364ZM10.3541 10.8977C10.9707 10.8977 11.4722 10.3977 11.4722 9.78409V9.22727H2.52774V9.78409C2.52774 10.3977 3.02918 10.8977 3.64579 10.8977H10.3541ZM8.11801 3.65909C8.11801 3.96661 7.86773 4.21591 7.55899 4.21591C7.25024 4.21591 6.99996 3.96661 6.99996 3.65909C6.99996 3.35157 7.25024 3.10227 7.55899 3.10227C7.86773 3.10227 8.11801 3.35157 8.11801 3.65909ZM6.44093 5.60795C6.74967 5.60795 6.99996 5.35866 6.99996 5.05114C6.99996 4.74361 6.74967 4.49432 6.44093 4.49432C6.13219 4.49432 5.8819 4.74361 5.8819 5.05114C5.8819 5.35866 6.13219 5.60795 6.44093 5.60795ZM9.23607 5.05114C9.23607 5.35866 8.98579 5.60795 8.67704 5.60795C8.3683 5.60795 8.11801 5.35866 8.11801 5.05114C8.11801 4.74361 8.3683 4.49432 8.67704 4.49432C8.98579 4.49432 9.23607 4.74361 9.23607 5.05114ZM7.55899 7C7.86773 7 8.11801 6.7507 8.11801 6.44318C8.11801 6.13566 7.86773 5.88636 7.55899 5.88636C7.25024 5.88636 6.99996 6.13566 6.99996 6.44318C6.99996 6.7507 7.25024 7 7.55899 7ZM5.8819 6.44318C5.8819 6.7507 5.63162 7 5.32288 7C5.01413 7 4.76385 6.7507 4.76385 6.44318C4.76385 6.13566 5.01413 5.88636 5.32288 5.88636C5.63162 5.88636 5.8819 6.13566 5.8819 6.44318ZM9.7951 7C10.1038 7 10.3541 6.7507 10.3541 6.44318C10.3541 6.13566 10.1038 5.88636 9.7951 5.88636C9.48635 5.88636 9.23607 6.13566 9.23607 6.44318C9.23607 6.7507 9.48635 7 9.7951 7Z" fill="#9C9C9C"/>
</svg>
