<svg width="14" height="14" viewBox="0 0 14 14" fill="none" xmlns="http://www.w3.org/2000/svg">
<path fill-rule="evenodd" clip-rule="evenodd" d="M11.6666 7.87364C11.9484 7.98098 12.2266 8.09531 12.4985 8.22306C12.7026 8.31989 12.8333 8.52523 12.8333 8.75098V12.8343H11.6666V11.6676H2.33329V12.8343H1.16663V8.75098C1.16663 8.52523 1.29729 8.31989 1.50146 8.22306C1.77329 8.09531 2.05213 7.98098 2.33329 7.87364V3.50098H3.49996V4.66764H10.5V3.50098H11.6666V7.87364ZM10.5 7.48864V5.83431V5.83373H7.58329V7.03831C8.57029 7.08148 9.55204 7.22964 10.5 7.48864ZM3.49996 5.83431H6.41663V7.03889C5.42963 7.08148 4.44788 7.22964 3.49996 7.48923V5.83431ZM11.6666 9.12723C8.75171 7.86956 5.24821 7.86956 2.33329 9.12723V10.501H11.6666V9.12723Z" fill="#9C9C9C"/>
</svg>
