<svg width="268" height="307" viewBox="0 0 268 307" fill="none" xmlns="http://www.w3.org/2000/svg">
<path d="M187.011 215.664L183.235 248.96L185.671 249.082L185.03 257.398L179.002 257.581C178.467 260.739 178.273 263.946 178.422 267.146L197.756 266.527L187.011 215.664Z" fill="#4A90E2"/>
<path d="M153.456 245.662C153.365 245.631 156.197 246.332 156.197 246.332L160.886 201.369L146.666 181.538L144.199 205.695C144.318 214.834 132.743 223.746 122.884 218.672L78.2455 198.323L77.3977 201.555L69.5447 197.927L71.9487 190.22C69.5747 188.9 67.0202 187.935 64.3666 187.356L81.6864 270L156.958 267.839L158.359 255.532L152.634 254.161C152.634 254.161 153.548 245.692 153.456 245.662Z" fill="#4A90E2"/>
<path d="M120.844 141.999L116.405 120.704L48.7393 112.206L59.9449 166.582L64.7256 165.272L79.8899 172.309L83.6961 166.003L91.7639 169.354C91.3696 169.781 89.7237 172.462 89.7237 172.462L113.536 183.184C107.781 152.752 120.844 141.999 120.844 141.999Z" fill="#4A90E2"/>
<path d="M130.892 89.1764C129.735 84.7 120.174 77.2366 120.174 77.2366C116.488 73.4897 121.296 72.7891 121.296 72.7891C121.079 72.4251 120.973 72.006 120.99 71.5829C121.007 71.1596 121.146 70.7505 121.392 70.4051C121.637 70.0598 121.977 69.7931 122.371 69.6376C122.765 69.4823 123.195 69.4448 123.61 69.5296C124.219 69.8037 124.523 68.8882 124.523 68.8882L40 71.4792L44.3832 92.4071C44.3832 92.4071 95.9035 96.3656 117.736 97.5841C117.897 97.5841 126.528 96.6735 126.689 96.6414C131.928 95.6361 130.892 89.1764 130.892 89.1764Z" fill="#4A90E2"/>
<path d="M156.014 68L137.263 68.5788C137.263 68.5788 146.764 80.3069 142.896 85.4856C142.287 86.1721 141.536 86.7161 140.694 87.0795C139.853 87.4428 138.941 87.6162 138.024 87.5875C138.093 89.0716 138.705 90.4785 139.744 91.54C140.782 92.6015 142.175 93.2435 143.658 93.3434L159.461 84.4194L156.014 68Z" fill="#4A90E2"/>
<path d="M164.479 107.789L157.719 111.688V140.415L179.276 178.554L164.479 107.789Z" fill="#4A90E2"/>
<path d="M260 111.231L256.253 105.322L220.514 127.925L224.168 111.749L217.347 110.196L211.828 134.596C211.727 135.044 211.717 135.507 211.796 135.959C211.874 136.411 212.042 136.843 212.288 137.23C212.534 137.618 212.853 137.953 213.23 138.216C213.605 138.479 214.03 138.666 214.477 138.765L238.867 144.279L240.42 137.455L224.251 133.8L260 111.231Z" fill="#4A90E2"/>
<path d="M35.4054 34.2218C35.2064 33.0067 34.6504 31.8777 33.8077 30.9775C32.9652 30.0774 31.8738 29.4468 30.6717 29.165C29.4695 28.8834 28.2107 28.9635 27.0542 29.3954C25.8978 29.8271 24.8957 30.591 24.1747 31.5906C23.4537 32.5903 23.0462 33.7806 23.0037 35.0111C22.9613 36.2418 23.2858 37.4572 23.9361 38.5038C24.5863 39.5505 25.5333 40.3815 26.6573 40.8915C27.7813 41.4015 29.0317 41.5676 30.2504 41.3691C31.8846 41.1029 33.3457 40.2003 34.3125 38.86C35.2791 37.5197 35.6723 35.8512 35.4054 34.2218Z" fill="#CBE0F8"/>
<path d="M113.675 182.611C113.522 181.971 105.408 178.899 105.408 178.899L115.993 192.586C115.993 192.586 114.498 187.202 113.675 182.611Z" fill="#CBE0F8"/>
<path d="M132.434 60.3781C132.28 60.1239 132.076 59.9038 131.833 59.7312C131.591 59.5585 131.316 59.4371 131.024 59.3744C130.733 59.3116 130.432 59.3089 130.14 59.3662C129.848 59.4235 129.571 59.5397 129.325 59.7078C129.079 59.8759 128.871 60.0923 128.712 60.3436C128.553 60.595 128.448 60.8759 128.402 61.1693C128.356 61.4627 128.371 61.7626 128.445 62.05C128.52 62.3377 128.652 62.6069 128.835 62.8416C128.415 62.6242 127.936 62.55 127.47 62.6303C127.004 62.7105 126.578 62.9409 126.256 63.2861C125.934 63.6313 125.734 64.0721 125.688 64.5413C125.641 65.0103 125.75 65.4817 125.998 65.883C125.583 65.7968 125.151 65.8337 124.757 65.9893C124.362 66.1449 124.022 66.4126 123.779 66.7588C123.536 67.1052 123.399 67.5152 123.387 67.9379C123.375 68.3607 123.487 68.7777 123.71 69.1374C123.293 69.0426 122.856 69.0732 122.456 69.2254C122.056 69.3776 121.71 69.6448 121.462 69.993C121.214 70.3413 121.075 70.7549 121.062 71.1819C121.05 71.6088 121.165 72.0298 121.392 72.3917C120.926 72.291 120.439 72.3461 120.008 72.5486C119.576 72.7511 119.224 73.0896 119.005 73.5119C118.785 73.9342 118.712 74.4167 118.795 74.8849C118.878 75.3533 119.114 75.781 119.465 76.1022L125.444 81.3335C128.098 83.9171 130.538 86.6848 130.996 88.7226C130.63 85.2569 129.069 81.8489 128.464 81.6072C122.241 79.2653 124.29 73.6035 127.64 75.7677C129.257 76.8018 129.775 76.5585 129.745 75.5548C129.093 70.7285 132.248 62.2125 138.49 69.7072C137.583 68.5003 135.13 64.9386 132.434 60.3781Z" fill="#CBE0F8"/>
<path d="M148.448 165.792L146.832 181.395L154.457 191.491L148.448 165.792Z" fill="#CBE0F8"/>
<path d="M138.108 87.1394C136.955 87.328 135.775 87.2446 134.661 86.8961L139.907 91.0917C138.973 89.9532 138.352 88.5907 138.108 87.1394Z" fill="#CBE0F8"/>
<path d="M179.439 276.558C178.412 270.044 178.328 263.417 179.195 256.881C172.274 256.841 165.373 256.171 158.575 254.874L157.386 265.244C163.395 273.79 170.105 285.773 182 298C181.603 290.806 180.748 283.644 179.439 276.558Z" fill="#CBE0F8"/>
<path d="M115.596 115.943L105.073 118.802L116.512 120.171L115.596 115.943Z" fill="#CBE0F8"/>
<path d="M70.4534 167.313C60.4179 170.292 46.905 172.848 31.501 180.268C38.4639 182.17 45.5423 183.623 52.6926 184.617C59.222 185.686 65.5615 187.695 71.513 190.578C73.7416 184.052 76.5595 177.742 79.9318 171.723L70.4534 167.313Z" fill="#CBE0F8"/>
<path d="M130.97 119.745L149.882 118.255L151.224 135.287L144.117 143.651L132.312 136.929L130.97 119.745Z" fill="#CBE0F8"/>
<path d="M178.911 266.84L198.338 266.228L187.555 215.142" stroke="#3C3C3C" stroke-linecap="round" stroke-linejoin="round"/>
<path d="M64.7089 187.876L81.9666 269.736L157.471 267.479" stroke="#3C3C3C" stroke-linecap="round" stroke-linejoin="round"/>
<path d="M48.6428 111.749L60.1275 166.131" stroke="#3C3C3C" stroke-linecap="round" stroke-linejoin="round"/>
<path d="M123.842 68.4412L40.0598 70.9422L44.4582 91.8956" stroke="#3C3C3C" stroke-linecap="round" stroke-linejoin="round"/>
<path d="M159.903 84.0008L156.432 67.4651L137.617 68.0141" stroke="#3C3C3C" stroke-linecap="round" stroke-linejoin="round"/>
<path d="M179.767 178.148L164.832 107.388" stroke="#3C3C3C" stroke-linecap="round" stroke-linejoin="round"/>
<path d="M188.531 47.0881L156.28 67.4958" stroke="#3C3C3C" stroke-linecap="round" stroke-linejoin="round"/>
<path d="M198.071 265.805C197.837 265.953 197.767 266.262 197.915 266.495C198.063 266.729 198.371 266.798 198.605 266.651L198.071 265.805ZM267 222.828L267.267 223.251C267.444 223.139 267.532 222.93 267.489 222.725L267 222.828ZM245.867 120.378C245.81 120.108 245.545 119.935 245.274 119.992C245.004 120.049 244.831 120.315 244.888 120.585L245.867 120.378ZM211.327 32.0898C211.093 32.2373 211.024 32.5462 211.171 32.7796C211.319 33.013 211.628 33.0825 211.861 32.935L211.327 32.0898ZM225.003 24.0334L225.492 23.93C225.458 23.7699 225.348 23.6364 225.197 23.5727C225.047 23.5091 224.874 23.5233 224.736 23.6108L225.003 24.0334ZM243.34 113.251C243.397 113.521 243.663 113.694 243.933 113.637C244.203 113.58 244.376 113.315 244.319 113.045L243.34 113.251ZM198.605 266.651L267.267 223.251L266.733 222.406L198.071 265.805L198.605 266.651ZM267.489 222.725L245.867 120.378L244.888 120.585L266.511 222.932L267.489 222.725ZM211.861 32.935L225.27 24.456L224.736 23.6108L211.327 32.0898L211.861 32.935ZM224.514 24.1367L243.34 113.251L244.319 113.045L225.492 23.93L224.514 24.1367Z" fill="#3C3C3C"/>
<path d="M156.677 246.039L161.38 200.99L147.361 181.867" stroke="#3C3C3C" stroke-linecap="round" stroke-linejoin="round"/>
<path d="M113.853 182.782L89.9677 172.017" stroke="#3C3C3C" stroke-linecap="round" stroke-linejoin="round"/>
<path d="M154.997 192.268L148.727 165.917L144.547 206.023C144.3 208.408 143.488 210.701 142.181 212.714C140.874 214.727 139.109 216.401 137.029 217.6C134.948 218.799 132.613 219.489 130.215 219.613C127.816 219.737 125.422 219.292 123.229 218.314L78.4235 198.032" stroke="#3C3C3C" stroke-linecap="round" stroke-linejoin="round"/>
<path fill-rule="evenodd" clip-rule="evenodd" d="M131.203 119.74L150.14 118.246L151.484 135.326L144.367 143.713L132.547 136.973L131.203 119.74Z" stroke="#3C3C3C" stroke-linecap="round" stroke-linejoin="round"/>
<path d="M134.837 86.863L140.183 91.011" stroke="#3C3C3C" stroke-linecap="round" stroke-linejoin="round"/>
<path d="M118.068 97.0789C118.068 97.0789 128.728 136.515 118.924 130.69" stroke="#3C3C3C" stroke-linecap="round" stroke-linejoin="round"/>
<path d="M150.307 89.3336V108.882L129.034 110.712L125.735 96.2555" stroke="#3C3C3C" stroke-linecap="round" stroke-linejoin="round"/>
<path d="M158.143 85.0635V139.963L184.776 186.962C188.009 192.661 189.356 199.234 188.625 205.744L183.737 248.626" stroke="#3C3C3C" stroke-linecap="round" stroke-linejoin="round"/>
<path fill-rule="evenodd" clip-rule="evenodd" d="M153.934 245.368L153.109 253.969C163.707 256.611 174.638 257.659 185.546 257.08L186.371 248.479C175.461 249.213 164.504 248.161 153.934 245.368V245.368Z" stroke="#3C3C3C" stroke-linecap="round" stroke-linejoin="round"/>
<path fill-rule="evenodd" clip-rule="evenodd" d="M83.9216 165.551C77.6066 175.494 72.7997 186.317 69.6573 197.666L77.5732 201.177C80.5104 189.755 85.3305 178.902 91.8358 169.06L83.9216 165.551Z" stroke="#3C3C3C" stroke-linecap="round" stroke-linejoin="round"/>
<path d="M127.354 147.312C126.763 149.612 125.62 151.733 124.023 153.492C122.427 155.252 120.425 156.596 118.191 157.408" stroke="#3C3C3C" stroke-linecap="round" stroke-linejoin="round"/>
<path d="M157.013 144.993C157.013 144.993 159.701 150.788 164.89 152.038" stroke="#3C3C3C" stroke-linecap="round" stroke-linejoin="round"/>
<path fill-rule="evenodd" clip-rule="evenodd" d="M49.7117 40.3203C50.0654 42.4773 49.7705 44.6905 48.8643 46.68C47.9583 48.6696 46.4815 50.346 44.6211 51.4974C42.7606 52.6489 40.6 53.2234 38.4125 53.1484C36.2249 53.0735 34.1088 52.3524 32.3318 51.0764C30.5547 49.8003 29.1966 48.0267 28.4291 45.9798C27.6618 43.933 27.5196 41.7047 28.0205 39.5771C28.5216 37.4495 29.6432 35.518 31.2436 34.0271C32.8439 32.5361 34.8513 31.5526 37.0116 31.2009C39.9064 30.731 42.8697 31.4274 45.2509 33.1371C47.6321 34.8469 49.2363 37.4304 49.7117 40.3203V40.3203Z" stroke="#3C3C3C" stroke-linecap="round" stroke-linejoin="round"/>
<path d="M131.203 88.6625C130.744 86.619 128.301 83.8467 125.644 81.251L119.657 76.0051C119.305 75.6829 119.069 75.254 118.985 74.7844C118.902 74.3149 118.976 73.8309 119.195 73.4074C119.415 72.984 119.768 72.6445 120.2 72.4414C120.632 72.2383 121.119 72.1831 121.586 72.2841C121.358 71.9211 121.243 71.4989 121.256 71.0708C121.268 70.6427 121.407 70.2279 121.656 69.8786C121.904 69.5295 122.251 69.2615 122.651 69.1089C123.052 68.9562 123.489 68.9256 123.907 69.0206C123.684 68.6599 123.571 68.2417 123.584 67.8178C123.596 67.3938 123.732 66.9827 123.976 66.6353C124.22 66.2881 124.56 66.0197 124.955 65.8637C125.35 65.7077 125.782 65.6706 126.198 65.7571C125.95 65.3547 125.841 64.8819 125.887 64.4116C125.934 63.9411 126.134 63.499 126.456 63.1529C126.779 62.8066 127.206 62.5756 127.672 62.4952C128.139 62.4146 128.619 62.4891 129.039 62.7071C128.776 62.3625 128.617 61.9498 128.581 61.5176C128.544 61.0269 128.675 60.5381 128.951 60.1305C129.228 59.7229 129.633 59.4204 130.103 59.2717C130.573 59.1232 131.08 59.1373 131.541 59.3118C132.002 59.4865 132.39 59.8111 132.643 60.2334C133.963 62.4069 136.995 67.2115 138.366 69.1442" stroke="#3C3C3C" stroke-linecap="round" stroke-linejoin="round"/>
<path d="M208.051 18.7567C208.646 16.9979 209.096 15.1934 209.396 13.3615C210.798 6.86504 212.409 8.02564 212.726 14.063C212.903 17.4501 212.377 23.5195 212.145 26.905C212.004 28.9806 211.383 34.9875 210.588 40.935C209.339 50.2679 207.601 66.0669 206.556 75.5218C206.286 77.9612 205.45 80.3039 204.114 82.3638C202.776 84.4235 200.977 86.1432 198.859 87.3863L158.005 111.353" stroke="#3C3C3C" stroke-linecap="round" stroke-linejoin="round"/>
<path d="M208.081 21.5019C208.204 20.7089 207.786 14.5801 207.409 9.14948C206.988 3.04944 205.146 2.22594 203.897 9.24098C202.794 15.4325 202.003 16.7745 202.003 16.7745" stroke="#3C3C3C" stroke-linecap="round" stroke-linejoin="round"/>
<path d="M195.802 17.3234C195.802 17.3234 196.04 6.88921 196.047 5.88753C196.093 -0.458053 198.045 -0.520658 199.621 5.09453C201.067 10.2458 202.492 20.1599 202.492 20.1599" stroke="#3C3C3C" stroke-linecap="round" stroke-linejoin="round"/>
<path d="M196.872 20.0379C196.872 20.0379 194.918 15.3409 193.115 10.4304C191.222 5.27598 188.554 5.40761 189.877 11.6809C190.025 12.384 191.296 19.3396 191.679 21.3799C191.914 22.632 192.045 25.8024 190.976 26.1957C187.861 27.3531 180.045 24.3978 178.911 26.9887C178.18 28.6662 183.612 30.2329 187.219 31.6552C189.325 32.4851 190.412 35.8866 190.03 38.2367C189.996 38.4502 184.593 70.2616 184.593 70.2616L144.062 92.7994C142.637 92.666 141.305 92.0427 140.29 91.0359C139.276 90.029 138.644 88.7015 138.503 87.2805" stroke="#3C3C3C" stroke-linecap="round" stroke-linejoin="round"/>
<path d="M193.963 20.4342C198.78 19.3419 203.823 19.8562 208.319 21.8982" stroke="#3C3C3C" stroke-linecap="round" stroke-linejoin="round"/>
<path d="M195.893 24.0944C201.268 25.7719 204.537 28.9439 204.323 33.9764" stroke="#3C3C3C" stroke-linecap="round" stroke-linejoin="round"/>
<path d="M20.2973 100.861C16.3908 101.07 12.4733 100.876 8.60683 100.281C1.48998 99.1578 1.97226 101.283 8.08758 103.118C9.73537 103.612 11.1726 104.004 12.3943 104.307C15.968 105.197 19.5112 106.073 23.0238 107.052C36.4296 110.753 50.0315 111.929 116.708 120.227" stroke="#3C3C3C" stroke-linecap="round" stroke-linejoin="round"/>
<path d="M18.8955 92.1396L10.7707 87.5341C5.57332 84.5853 5.98004 82.3812 12.4201 84.9657C13.121 85.2466 20.2347 88.0911 22.347 88.9002C23.5656 89.3657 26.9335 90.3048 27.4785 89.4492C29.0475 86.9851 26.8081 79.3569 29.6166 78.9877C31.4493 78.7453 32.483 83.9303 33.5874 87.4667C34.2304 89.5102 37.6498 91.3707 40.1544 91.5537C40.3683 91.5842 118.072 97.0726 118.072 97.0726L127.51 96.0356C134.535 94.1751 129.894 82.004 128.701 81.5497C122.507 79.1868 124.513 73.5331 127.876 75.6937C129.825 76.9458 130.039 76.3358 129.937 75.026C129.511 69.5215 133.635 60.3989 140.858 72.7353C150.957 89.9741 134.841 86.8615 134.841 86.8615" stroke="#3C3C3C" stroke-linecap="round" stroke-linejoin="round"/>
<path d="M20.4808 92.5008C20.4808 92.5008 7.25827 89.2903 6.36927 89.056C-0.487154 87.2292 -0.498407 89.5937 5.20858 91.7705C10.6198 93.8332 17.182 96.4658 17.182 96.4658" stroke="#3C3C3C" stroke-linecap="round" stroke-linejoin="round"/>
<path d="M19.5032 96.774C15.0522 96.32 10.6276 95.6379 6.24693 94.7303C-0.74614 93.3209 -0.439088 95.4254 5.3306 97.5058C8.87584 98.8664 12.5085 99.9874 16.2044 100.861" stroke="#3C3C3C" stroke-linecap="round" stroke-linejoin="round"/>
<path d="M21.1462 90.7062C19.4812 94.8876 19.4812 99.5465 21.1462 103.728" stroke="#3C3C3C" stroke-linecap="round" stroke-linejoin="round"/>
<path d="M24.7568 93.3035C25.9481 98.4884 28.8803 102.118 34.1645 103.155" stroke="#3C3C3C" stroke-linecap="round" stroke-linejoin="round"/>
<path d="M158.845 255.25L156.952 271.871C162.9 280.228 169.231 293.16 182.332 306C182.493 296.258 181.632 286.527 179.76 276.964C178.67 270.437 178.595 263.782 179.534 257.232" stroke="#3C3C3C" stroke-linecap="round" stroke-linejoin="round"/>
<path d="M223.72 269.095C238.779 273.701 237.465 252.322 252.524 256.927" stroke="#3C3C3C" stroke-linecap="round" stroke-linejoin="round"/>
<path d="M36.4553 213.831L42.045 212.58" stroke="#3C3C3C" stroke-linecap="round" stroke-linejoin="round"/>
<path d="M51.9415 210.324L57.5312 209.073" stroke="#3C3C3C" stroke-linecap="round" stroke-linejoin="round"/>
<path d="M44.6107 200.93L45.8936 206.511" stroke="#3C3C3C" stroke-linecap="round" stroke-linejoin="round"/>
<path d="M48.1236 216.393L49.3759 221.974" stroke="#3C3C3C" stroke-linecap="round" stroke-linejoin="round"/>
<path d="M37.8605 205.688L42.717 208.737" stroke="#3C3C3C" stroke-linecap="round" stroke-linejoin="round"/>
<path d="M51.2999 214.166L56.1259 217.216" stroke="#3C3C3C" stroke-linecap="round" stroke-linejoin="round"/>
<path d="M52.7661 202.333L49.7117 207.182" stroke="#3C3C3C" stroke-linecap="round" stroke-linejoin="round"/>
<path d="M44.2748 215.722L41.2203 220.571" stroke="#3C3C3C" stroke-linecap="round" stroke-linejoin="round"/>
<path fill-rule="evenodd" clip-rule="evenodd" d="M215.076 138.345C214.628 138.246 214.202 138.059 213.825 137.796C213.448 137.532 213.128 137.197 212.88 136.809C212.634 136.421 212.465 135.989 212.387 135.536C212.308 135.084 212.317 134.62 212.419 134.172L217.917 109.741L224.759 111.297L221.132 127.457L256.991 104.823L260.748 110.74L224.858 133.374L241.077 137.034L239.512 143.869L215.076 138.345Z" stroke="#3C3C3C" stroke-linecap="round" stroke-linejoin="round"/>
<path d="M250.049 78.6892L255.822 70.5152L247.698 64.9033L253.44 56.7293L245.254 50.7818L251.027 42.6384L242.627 36.7214" stroke="#3C3C3C" stroke-linecap="round" stroke-linejoin="round"/>
<path d="M256.647 62.6768L262.418 54.5028L254.295 48.8908L260.036 40.7168L251.852 34.7694L257.624 26.6259L249.225 20.7089" stroke="#3C3C3C" stroke-linecap="round" stroke-linejoin="round"/>
<path d="M80.1339 171.865L64.9228 164.819C55.1164 167.808 40.8232 169.728 24.4819 178.087C33.6729 181.337 43.1856 183.598 52.8577 184.829C59.3852 185.877 65.7227 187.879 71.6667 190.768" stroke="#3C3C3C" stroke-linecap="round" stroke-linejoin="round"/>
<path d="M105.27 118.795L115.808 115.928L121.184 141.548C121.184 141.548 105.301 153.626 116.2 192.786L105.602 179.061" stroke="#3C3C3C" stroke-linecap="round" stroke-linejoin="round"/>
</svg>
