<svg width="305" height="307" viewBox="0 0 305 307" fill="none" xmlns="http://www.w3.org/2000/svg">
<path d="M301.779 218.762C293.725 205.155 279.029 187.279 263.785 183.2L259.516 193.387C259.236 194.014 258.763 194.535 258.164 194.87C257.564 195.206 256.872 195.339 256.192 195.247L244.513 193.6C244.041 193.533 243.592 193.361 243.195 193.096C242.799 192.831 242.468 192.481 242.224 192.072C241.982 191.663 241.834 191.204 241.793 190.729C241.749 190.255 241.815 189.777 241.982 189.33L244.513 181.828C236.394 183.889 224.235 177.831 216.978 173.593L229.663 143.864C227.23 141.043 224.202 138.797 220.794 137.289C217.389 135.78 213.689 135.047 209.966 135.142L195.116 167.806C193.261 171.901 192.945 176.529 194.229 180.837C195.511 185.146 198.307 188.847 202.099 191.26C211.014 197.079 220.849 201.349 231.188 203.887C231 212.531 232.881 221.094 236.676 228.864C246.018 231.394 255.86 231.426 265.218 228.955C264.646 223.438 267.105 216.364 269.09 211.176L280.739 223.526L256.505 244.479C257.307 252.631 263.794 259.568 271.324 261.925L298.287 239.203C301.188 236.757 303.132 233.363 303.771 229.621C304.409 225.88 303.705 222.034 301.779 218.762Z" fill="#CBE0F8"/>
<path d="M37.0117 106.495C35.3702 107.438 33.6048 108.146 31.7669 108.599C14.9653 112.839 5.90888 134.829 1.5869 150.719C0.46425 154.839 0.964174 159.233 2.98371 162.995C5.00322 166.758 8.3886 169.604 12.4424 170.944C24.3351 174.771 36.7069 176.908 49.1944 177.288C52.6737 171.456 53.7249 164.49 52.1218 157.891C42.6511 157.07 33.2728 155.406 24.0987 152.914C25.8373 148.067 28.0168 143.389 30.6098 138.939C32.8919 146.627 32.0189 143.665 34.4615 152.03C44.5242 153.677 56.386 154.409 67.5769 151.573C69.3737 144.885 70.4471 138.024 70.7786 131.108C76.2266 135.426 82.3308 138.845 88.8594 141.233C91.3726 142.215 94.0573 142.684 96.7545 142.61C99.4518 142.537 102.107 141.924 104.563 140.806C115.578 135.788 122.463 132.023 135.849 121.988C135.94 114.028 132.403 108.477 125.146 105.397C116.608 111.771 106.484 118.298 97.1839 121.988C90.7384 117.168 83.9286 112.855 76.8162 109.087C68.9812 105.268 57.9716 104.024 56.3555 103.811C51.3484 109.686 46.6057 109.312 37.0117 106.495Z" fill="#CBE0F8"/>
<path d="M45.9766 160.265C45.639 160.265 45.3087 160.364 45.028 160.552C44.7471 160.74 44.5282 161.006 44.399 161.319C44.2698 161.631 44.236 161.974 44.3018 162.307C44.3677 162.637 44.5303 162.942 44.7691 163.18C45.0079 163.419 45.3122 163.581 45.6435 163.649C45.9747 163.714 46.318 163.681 46.6302 163.551C46.9422 163.421 47.2089 163.202 47.3965 162.921C47.5841 162.64 47.6843 162.31 47.6843 161.973C47.6772 161.522 47.495 161.091 47.1763 160.772C46.8576 160.454 46.4273 160.271 45.9766 160.265Z" fill="#CBE0F8"/>
<path d="M21.1859 169.598C22.1289 169.598 22.8935 168.833 22.8935 167.89C22.8935 166.946 22.1289 166.182 21.1859 166.182C20.2427 166.182 19.4783 166.946 19.4783 167.89C19.4783 168.833 20.2427 169.598 21.1859 169.598Z" fill="#CBE0F8"/>
<path d="M9.1107 146.754C10.0537 146.754 10.8183 145.989 10.8183 145.046C10.8183 144.102 10.0537 143.338 9.1107 143.338C8.16766 143.338 7.40308 144.102 7.40308 145.046C7.40308 145.989 8.16766 146.754 9.1107 146.754Z" fill="#CBE0F8"/>
<path d="M29.6934 132.267C30.6365 132.267 31.4011 131.502 31.4011 130.559C31.4011 129.615 30.6365 128.851 29.6934 128.851C28.7504 128.851 27.9858 129.615 27.9858 130.559C27.9858 131.502 28.7504 132.267 29.6934 132.267Z" fill="#CBE0F8"/>
<path d="M37.5607 108.996C37.2228 108.996 36.8927 109.096 36.612 109.284C36.3312 109.471 36.1123 109.738 35.9831 110.05C35.8537 110.362 35.82 110.706 35.8858 111.037C35.9518 111.368 36.1143 111.672 36.3531 111.911C36.592 112.15 36.8962 112.313 37.2275 112.379C37.5587 112.445 37.902 112.411 38.2142 112.282C38.5262 112.152 38.7927 111.933 38.9805 111.653C39.1681 111.372 39.2683 111.041 39.2683 110.704C39.2612 110.253 39.0791 109.823 38.7603 109.504C38.4416 109.185 38.0113 109.003 37.5607 108.996Z" fill="#CBE0F8"/>
<path d="M54.6671 126.136C54.3293 126.136 53.9992 126.236 53.7183 126.424C53.4376 126.612 53.2187 126.879 53.0895 127.191C52.9602 127.503 52.9264 127.846 52.9922 128.177C53.0582 128.509 53.2208 128.813 53.4596 129.052C53.6984 129.291 54.0027 129.453 54.3339 129.519C54.6652 129.585 55.0085 129.551 55.3206 129.422C55.6326 129.293 55.8992 129.074 56.087 128.793C56.2746 128.512 56.3747 128.182 56.3747 127.844C56.3677 127.393 56.1855 126.963 55.8668 126.644C55.548 126.326 55.1178 126.143 54.6671 126.136Z" fill="#CBE0F8"/>
<path d="M40.7928 141.63C40.455 141.63 40.1249 141.73 39.8442 141.918C39.5633 142.105 39.3444 142.372 39.2152 142.684C39.0859 142.996 39.0522 143.34 39.118 143.671C39.1839 144.002 39.3465 144.307 39.5853 144.546C39.8241 144.784 40.1284 144.947 40.4597 145.013C40.7909 145.079 41.1342 145.045 41.4464 144.916C41.7584 144.786 42.0251 144.568 42.2127 144.287C42.4003 144.006 42.5005 143.676 42.5005 143.338C42.5008 143.113 42.457 142.891 42.3713 142.684C42.2857 142.476 42.1599 142.288 42.0012 142.129C41.8426 141.97 41.6542 141.845 41.4468 141.759C41.2395 141.673 41.0172 141.629 40.7928 141.63Z" fill="#CBE0F8"/>
<path d="M79.6392 132.267C80.5823 132.267 81.3469 131.502 81.3469 130.559C81.3469 129.615 80.5823 128.851 79.6392 128.851C78.6961 128.851 77.9316 129.615 77.9316 130.559C77.9316 131.502 78.6961 132.267 79.6392 132.267Z" fill="#CBE0F8"/>
<path d="M96.075 124.12C95.7374 124.12 95.4071 124.22 95.1264 124.408C94.8455 124.596 94.6266 124.862 94.4974 125.174C94.3682 125.486 94.3344 125.83 94.4002 126.161C94.4661 126.493 94.6287 126.797 94.8675 127.036C95.1063 127.275 95.4106 127.437 95.7419 127.503C96.0731 127.569 96.4166 127.535 96.7285 127.406C97.0405 127.277 97.3073 127.058 97.4949 126.777C97.6825 126.496 97.7826 126.166 97.7826 125.828C97.7756 125.377 97.5934 124.947 97.2747 124.628C96.956 124.309 96.5257 124.127 96.075 124.12Z" fill="#CBE0F8"/>
<path d="M116.78 131.26C117.723 131.26 118.487 130.495 118.487 129.552C118.487 128.609 117.723 127.844 116.78 127.844C115.837 127.844 115.072 128.609 115.072 129.552C115.072 130.495 115.837 131.26 116.78 131.26Z" fill="#CBE0F8"/>
<path d="M125.836 112.869C126.779 112.869 127.544 112.104 127.544 111.161C127.544 110.218 126.779 109.453 125.836 109.453C124.893 109.453 124.128 110.218 124.128 111.161C124.128 112.104 124.893 112.869 125.836 112.869Z" fill="#CBE0F8"/>
<path d="M63.0221 145.015C62.6843 145.015 62.3541 145.115 62.0733 145.303C61.7926 145.491 61.5737 145.758 61.4445 146.07C61.3151 146.382 61.2814 146.725 61.3472 147.056C61.4132 147.388 61.5758 147.692 61.8146 147.931C62.0534 148.17 62.3577 148.332 62.6889 148.398C63.0202 148.464 63.3635 148.43 63.6754 148.301C63.9876 148.172 64.2542 147.953 64.4418 147.672C64.6296 147.391 64.7297 147.061 64.7297 146.723C64.7226 146.272 64.5405 145.842 64.2218 145.523C63.903 145.205 63.4727 145.022 63.0221 145.015Z" fill="#CBE0F8"/>
<path d="M66.4068 111.802C67.3499 111.802 68.1144 111.037 68.1144 110.094C68.1144 109.151 67.3499 108.386 66.4068 108.386C65.4636 108.386 64.6992 109.151 64.6992 110.094C64.6992 111.037 65.4636 111.802 66.4068 111.802Z" fill="#CBE0F8"/>
<path fill-rule="evenodd" clip-rule="evenodd" d="M134.709 34.549L137.637 26.8328C135.749 24.1882 134.726 21.0238 134.709 17.7745C134.709 8.50278 142.943 1 153.097 1C163.251 1 171.453 8.50278 171.453 17.7745C171.453 27.0462 163.22 34.549 153.066 34.549C149.278 34.5694 145.567 33.4772 142.394 31.4076L134.709 34.549ZM146.726 18.7738C146.923 18.4779 147.029 18.1302 147.029 17.7745C147.028 17.2966 146.837 16.8388 146.499 16.5014C146.161 16.164 145.702 15.9746 145.225 15.9751C144.869 15.976 144.522 16.0825 144.226 16.2807C143.931 16.4789 143.701 16.7603 143.566 17.0892C143.431 17.4182 143.396 17.7798 143.466 18.1285C143.536 18.4773 143.707 18.7975 143.959 19.0486C144.211 19.2998 144.531 19.4707 144.88 19.5398C145.229 19.6088 145.591 19.5728 145.919 19.4366C146.248 19.3003 146.528 19.0696 146.726 18.7738ZM154.865 17.7745C154.865 18.1304 154.759 18.4784 154.562 18.7742C154.365 19.0702 154.084 19.3008 153.755 19.437C153.426 19.5732 153.065 19.6088 152.715 19.5395C152.366 19.4699 152.046 19.2987 151.794 19.047C151.542 18.7953 151.371 18.4747 151.302 18.1256C151.232 17.7766 151.268 17.4148 151.404 17.0859C151.54 16.7571 151.771 16.4761 152.067 16.2783C152.362 16.0807 152.71 15.9751 153.066 15.9751C153.543 15.9759 154 16.1658 154.337 16.503C154.674 16.8403 154.864 17.2976 154.865 17.7745ZM162.429 18.7742C162.627 18.4784 162.733 18.1304 162.733 17.7745C162.731 17.2976 162.542 16.8403 162.204 16.503C161.867 16.1658 161.41 15.9759 160.933 15.9751C160.577 15.9751 160.23 16.0807 159.934 16.2783C159.638 16.4761 159.407 16.7571 159.271 17.0859C159.134 17.4148 159.099 17.7766 159.17 18.1256C159.239 18.4747 159.41 18.7953 159.661 19.047C159.913 19.2987 160.234 19.4699 160.582 19.5395C160.932 19.6088 161.293 19.5732 161.622 19.437C161.951 19.3008 162.232 19.0702 162.429 18.7742Z" fill="#CBE0F8"/>
<path d="M132.423 286.652L104.156 285.926C103.908 285.904 103.658 285.941 103.427 286.034C103.195 286.127 102.99 286.274 102.826 286.462C102.662 286.65 102.546 286.873 102.485 287.116C102.425 287.356 102.423 287.61 102.479 287.852L103.762 293.098C109.576 293.233 115.392 292.989 121.174 292.366C115.876 294.535 110.368 296.148 104.738 297.182L107.361 304.807C107.418 305.047 107.532 305.272 107.693 305.46C107.855 305.649 108.06 305.795 108.29 305.889C108.52 305.98 108.769 306.017 109.016 305.993C109.263 305.969 109.5 305.887 109.709 305.752C118.259 301.521 126.139 296.053 133.097 289.527C133.373 289.355 133.589 289.1 133.714 288.798C133.838 288.498 133.865 288.165 133.791 287.848C133.716 287.53 133.544 287.244 133.299 287.029C133.054 286.815 132.747 286.682 132.423 286.652Z" fill="#CBE0F8"/>
<path d="M189.204 56H110.897C108.462 55.9989 106.051 56.4769 103.801 57.4068C101.551 58.3366 99.5065 59.6998 97.7848 61.4189C96.0628 63.1377 94.6974 65.1786 93.7661 67.4246C92.8349 69.6707 92.3561 72.078 92.3574 74.5088V87.0787H100.587V76.3031C100.597 74.6014 100.947 72.9189 101.619 71.3549C102.291 69.7908 103.27 68.3772 104.498 67.1972C105.726 66.0173 107.179 65.0952 108.771 64.4854C110.362 63.8755 112.06 63.5903 113.764 63.6467H186.887C188.589 63.593 190.286 63.88 191.876 64.4908C193.467 65.1017 194.918 66.024 196.145 67.2033C197.373 68.3828 198.352 69.7955 199.025 71.3583C199.695 72.9211 200.049 74.6024 200.06 76.3031V157.576L207.744 140.713V74.5088C207.746 72.078 207.266 69.6708 206.335 67.4249C205.404 65.1789 204.038 63.1382 202.316 61.4193C200.594 59.7005 198.55 58.3371 196.301 57.4073C194.051 56.4773 191.639 55.9992 189.204 56Z" fill="#4A90E2"/>
<path d="M200.031 240.796V251.21C200.029 254.698 198.643 258.041 196.171 260.507C193.701 262.974 190.352 264.358 186.858 264.36H113.733C110.24 264.358 106.89 262.974 104.419 260.507C101.949 258.041 100.561 254.698 100.56 251.21V169.184H92.3269V253.499C92.3267 255.93 92.8061 258.336 93.7379 260.58C94.6696 262.827 96.0354 264.866 97.7571 266.583C99.4787 268.302 101.523 269.664 103.772 270.593C106.022 271.523 108.432 272.002 110.867 272H189.204C191.639 272.002 194.051 271.523 196.301 270.593C198.55 269.664 200.594 268.301 202.316 266.582C204.038 264.863 205.404 262.822 206.335 260.577C207.266 258.331 207.746 255.923 207.744 253.493V240.8L200.031 240.796Z" fill="#4A90E2"/>
<path d="M254.672 171.031L251.775 174.409C251.99 173.399 252.091 172.368 252.08 171.335C252.951 171.303 253.818 171.201 254.672 171.031Z" fill="#4A90E2"/>
<path d="M52.5043 101.446C51.5972 100.458 51.0963 99.1643 51.1016 97.8239C51.7676 98.255 52.4626 98.64 53.1816 98.9757C52.7036 99.7087 52.4669 100.572 52.5043 101.446Z" fill="#4A90E2"/>
<path d="M33.3239 134.93L32.7991 144.822L31 138.674C31.6757 137.517 32.4396 136.304 33.3239 134.93Z" fill="#4A90E2"/>
<path d="M71.166 130.942C71.3346 127.369 71.2428 123.787 70.8916 120.227L75.0644 133.803C73.819 132.951 72.5077 132.007 71.166 130.942Z" fill="#4A90E2"/>
<path d="M59.7615 74.1435C59.7119 73.6294 59.4917 73.1467 59.1359 72.7718C58.7799 72.3969 58.3089 72.1515 57.7972 72.0746C57.2856 71.9977 56.763 72.0935 56.3122 72.3471C55.8616 72.6005 55.5086 72.9972 55.3095 73.4738H55.0045C54.8482 72.9791 54.5308 72.5509 54.1026 72.2569C53.6745 71.9631 53.1602 71.8203 52.6416 71.8517C52.1229 71.883 51.6296 72.0864 51.2401 72.4298C50.8505 72.7729 50.587 73.2364 50.4915 73.7462H50.3695C50.2195 73.1661 49.8505 72.6662 49.3398 72.3514C48.8293 72.0366 48.2164 71.931 47.6295 72.0568C47.0427 72.1826 46.5274 72.5301 46.1912 73.0265C45.8551 73.5229 45.7243 74.1297 45.826 74.7203C45.6553 74.1953 45.3028 73.7481 44.832 73.4588C44.3611 73.1693 43.8024 73.0567 43.2559 73.1409C42.7095 73.225 42.2108 73.5008 41.8492 73.9183C41.4877 74.3359 41.2869 74.8684 41.2825 75.4204C41.2808 75.6467 41.3116 75.8723 41.374 76.09C42.575 79.6993 43.5927 83.367 44.4234 87.0787C45.4296 91.949 45.948 97.1846 44.4234 99.8953C47.4422 95.4816 48.2045 91.0374 47.7166 90.5504C43.0207 85.9252 47.1677 81.6012 49.3328 84.9191C50.3695 86.5019 50.9794 86.5019 51.3148 85.5903C52.7175 80.8402 59.3956 74.2669 61.7468 84.2798L59.7615 74.1435Z" fill="#4A90E2"/>
<path d="M270.711 163.938C271.236 162.229 271.544 160.459 271.626 158.672C271.992 147.618 260.74 145.066 252.873 151.549C257.172 148.81 259.642 155.507 259.215 159.616C259.215 160.34 259.462 161.016 261.319 159.776C264.582 157.524 266.747 163.094 260.648 165.59C259.49 166.047 258.241 171.769 259.673 178.831C260.221 181.63 261.533 182.035 264.186 182.88C271.481 185.004 278.771 190.134 284.037 195.116C297.972 167.895 270.681 163.938 270.711 163.938Z" fill="#4A90E2"/>
<path d="M236.49 228.856L231.463 241.177" stroke="#3C3C3C" stroke-linecap="round" stroke-linejoin="round"/>
<path d="M100.11 87.1584V76.3328C100.118 74.6271 100.468 72.9404 101.138 71.3724C101.809 69.8044 102.787 68.3869 104.015 67.2038C105.242 66.0208 106.694 65.0962 108.285 64.4846C109.875 63.8731 111.573 63.5871 113.276 63.6436H186.34C188.041 63.5898 189.738 63.8776 191.327 64.4902C192.916 65.1026 194.368 66.0275 195.594 67.2101C196.821 68.3926 197.798 69.8091 198.47 71.3758C199.142 72.9426 199.493 74.6281 199.502 76.3328V157.794" stroke="#3C3C3C" stroke-linecap="round" stroke-linejoin="round"/>
<path d="M207.171 140.867V74.5334C207.169 72.0979 206.69 69.6864 205.758 67.4369C204.825 65.1873 203.459 63.1439 201.738 61.4231C200.016 59.7023 197.971 58.338 195.723 57.4083C193.474 56.4784 191.064 56.0015 188.631 56.0043H110.381C107.947 56.005 105.537 56.4856 103.289 57.4187C101.04 58.3518 98.9979 59.7191 97.2775 61.4427C95.5573 63.1662 94.1929 65.212 93.2628 67.4633C92.3326 69.7148 91.8545 72.1275 91.856 74.5639V87.1584" stroke="#3C3C3C" stroke-linecap="round" stroke-linejoin="round"/>
<path d="M246.941 158.923H223.053" stroke="#3C3C3C" stroke-linecap="round" stroke-linejoin="round"/>
<path d="M270.981 158.907H286.307C287.23 158.905 288.144 159.087 288.997 159.44C289.852 159.791 290.627 160.31 291.281 160.963C291.935 161.615 292.453 162.39 292.808 163.244C293.162 164.098 293.345 165.013 293.345 165.938V206.349" stroke="#3C3C3C" stroke-linecap="round" stroke-linejoin="round"/>
<path d="M198.992 158.923H194.262L173.976 152.671L180.435 172.495V234.135C180.437 236.004 181.178 237.795 182.497 239.116C183.817 240.437 185.607 241.179 187.474 241.181H260.042" stroke="#3C3C3C" stroke-linecap="round" stroke-linejoin="round"/>
<path d="M119.339 109.513V94.2037C119.338 92.3354 118.596 90.544 117.276 89.2229C115.957 87.9018 114.167 87.1592 112.301 87.1584H61.7544" stroke="#3C3C3C" stroke-linecap="round" stroke-linejoin="round"/>
<path d="M199.502 241.177V251.611C199.501 255.106 198.115 258.456 195.646 260.926C193.178 263.398 189.831 264.785 186.34 264.787H113.245C109.754 264.785 106.407 263.398 103.939 260.926C101.47 258.456 100.083 255.106 100.083 251.611V169.424" stroke="#3C3C3C" stroke-linecap="round" stroke-linejoin="round"/>
<path d="M91.856 169.415V253.896C91.8545 256.331 92.3326 258.743 93.263 260.994C94.1934 263.244 95.5578 265.289 97.2783 267.012C98.9988 268.734 101.042 270.1 103.29 271.033C105.538 271.964 107.948 272.444 110.381 272.442H188.655C191.088 272.444 193.498 271.964 195.747 271.033C197.993 270.102 200.036 268.736 201.757 267.013C203.478 265.291 204.842 263.246 205.773 260.997C206.703 258.746 207.182 256.334 207.181 253.899V241.181" stroke="#3C3C3C" stroke-linecap="round" stroke-linejoin="round"/>
<path d="M43.93 87.1584H13.4307C11.5651 87.1605 9.77671 87.9037 8.45789 89.2247C7.13921 90.5456 6.39807 92.3364 6.39722 94.2037V136.421" stroke="#3C3C3C" stroke-linecap="round" stroke-linejoin="round"/>
<path d="M83.0825 169.415H105.506L125.768 175.636L119.339 155.842V133.212" stroke="#3C3C3C" stroke-linecap="round" stroke-linejoin="round"/>
<path d="M153.555 272.442C147.334 279.304 139.787 284.833 131.37 288.69C122.953 292.549 113.842 294.658 104.587 294.891C95.3322 295.124 86.1266 293.475 77.5268 290.043C68.9273 286.613 61.1123 281.472 54.5549 274.93C47.9974 268.389 42.8337 260.583 39.3763 251.987C35.9188 243.391 34.2395 234.182 34.4396 224.917C34.6399 215.653 36.7154 206.526 40.541 198.087C44.3667 189.648 49.8627 182.073 56.6966 175.823" stroke="#3C3C3C" stroke-linecap="round" stroke-linejoin="round"/>
<path fill-rule="evenodd" clip-rule="evenodd" d="M132.319 286.652L104.074 285.926C103.826 285.904 103.576 285.941 103.345 286.034C103.115 286.127 102.909 286.274 102.746 286.462C102.582 286.65 102.465 286.873 102.405 287.116C102.345 287.356 102.342 287.61 102.398 287.852L103.681 293.098C109.49 293.233 115.302 292.989 121.079 292.366C115.785 294.535 110.282 296.148 104.656 297.182L107.276 304.807C107.333 305.047 107.447 305.272 107.609 305.46C107.77 305.649 107.975 305.795 108.205 305.889C108.435 305.98 108.683 306.017 108.93 305.993C109.177 305.969 109.414 305.887 109.623 305.752C118.166 301.521 126.04 296.053 132.992 289.527C133.269 289.355 133.484 289.1 133.609 288.798C133.733 288.498 133.76 288.165 133.686 287.848C133.611 287.53 133.439 287.244 133.194 287.029C132.949 286.815 132.643 286.682 132.319 286.652V286.652Z" stroke="#3C3C3C" stroke-linecap="round" stroke-linejoin="round"/>
<path d="M251.481 171.55C252.35 171.533 253.217 171.44 254.071 171.275L251.176 174.63" stroke="#3C3C3C" stroke-linecap="round" stroke-linejoin="round"/>
<path d="M231.005 203.818C220.646 201.397 210.803 197.141 201.94 191.252C198.15 188.839 195.359 185.138 194.076 180.829C192.794 176.521 193.109 171.893 194.962 167.798L209.799 135.105C217.519 135.626 223.767 137.137 229.482 143.826L216.813 173.593C222.511 176.917 229.549 180.428 236.07 181.706C245.012 183.457 251.487 180.659 251.487 171.549C247.435 171.671 240.731 170.177 247.739 157.398C254.747 144.619 259.409 154.508 258.83 159.899C258.86 160.844 259.348 161.088 260.932 159.99C264.192 157.732 266.372 163.361 260.262 165.816C259.107 166.281 257.857 172.009 259.287 179.083C260.379 184.451 264.135 181.062 275.192 188.714C287.474 197.222 296.348 209.537 301.761 218.693C303.696 221.963 304.41 225.815 303.773 229.564C303.136 233.31 301.193 236.712 298.287 239.158L271.139 261.91C267.265 260.716 263.809 258.441 261.182 255.351C258.554 252.261 256.861 248.484 256.301 244.465L280.516 223.512L266.256 208.355" stroke="#3C3C3C" stroke-linecap="round" stroke-linejoin="round"/>
<path d="M52.0652 101.554C51.1588 100.564 50.6583 99.2677 50.6636 97.9246C51.3291 98.3566 52.0235 98.7423 52.7419 99.0788" stroke="#3C3C3C" stroke-linecap="round" stroke-linejoin="round"/>
<path fill-rule="evenodd" clip-rule="evenodd" d="M50.8467 85.664C52.2482 80.9061 58.9514 74.3183 61.2702 84.3525L61.7882 87.5854C63.403 102.353 56.3952 100.792 52.7389 99.0836C52.7389 99.0836 50.1828 102.867 54.8637 103.652C55.6142 103.777 56.1242 103.788 56.307 103.813C52.6507 109.18 45.8834 109.516 36.9897 106.496C45.2596 101.806 48.236 91.6755 47.2273 90.6674C42.5768 86.0251 46.6756 81.7023 48.8421 85.0251C49.8765 86.6126 50.4265 86.5805 50.8226 85.7266L50.8467 85.664Z" stroke="#3C3C3C" stroke-linecap="round" stroke-linejoin="round"/>
<path d="M30.5703 138.939C31.2711 137.75 32.0472 136.475 32.9004 135.103L32.376 145.046" stroke="#3C3C3C" stroke-linecap="round" stroke-linejoin="round"/>
<path d="M70.7122 131.108C70.8806 127.527 70.7889 123.939 70.438 120.372L74.6074 133.975" stroke="#3C3C3C" stroke-linecap="round" stroke-linejoin="round"/>
<path d="M36.9832 106.495C35.343 107.438 33.579 108.146 31.7426 108.599C14.9542 112.839 5.905 134.829 1.58644 150.719C0.464674 154.839 0.964203 159.233 2.98214 162.995C5.00006 166.758 8.38276 169.604 12.4333 170.944C24.3167 174.771 36.6787 176.908 49.1563 177.288C52.6328 171.456 53.6832 164.49 52.0813 157.891C42.6182 157.07 33.2472 155.406 24.0805 152.914C25.8177 148.067 27.9954 143.389 30.5864 138.939C32.8667 146.627 31.9943 143.665 34.4351 152.03C44.4898 153.677 56.3421 154.409 67.5242 151.573C69.3196 144.885 70.3921 138.024 70.7234 131.108C76.1671 135.426 82.2665 138.845 88.7899 141.233C91.3011 142.215 93.9837 142.684 96.6787 142.61C99.3739 142.537 102.027 141.924 104.481 140.806C115.487 135.788 122.367 132.023 135.742 121.988C135.834 114.028 132.299 108.477 125.048 105.397C116.517 111.771 106.401 118.298 97.1078 121.988C90.6674 117.168 83.863 112.855 76.7563 109.087C68.9274 105.268 57.9265 104.024 56.3117 103.811" stroke="#3C3C3C" stroke-linecap="round" stroke-linejoin="round"/>
<path d="M219.429 120.871C219.557 120.506 219.772 120.176 220.053 119.909C220.333 119.642 220.673 119.445 221.044 119.335C222.657 118.908 225.034 122.293 224.272 126.655C223.879 129.022 222.216 130.092 221.27 126.522" stroke="#3C3C3C" stroke-linecap="round" stroke-linejoin="round"/>
<path d="M222.718 120.067C222.987 119.8 223.324 119.61 223.693 119.518C225.311 119.102 227.776 121.561 227.197 125.984C226.895 128.281 225.516 128.841 224.365 126.001" stroke="#3C3C3C" stroke-linecap="round" stroke-linejoin="round"/>
<path d="M211.446 135.196C215.072 128.669 214.795 126.839 215.742 123.728C216.198 122.234 216.836 120.916 218.148 120.587C219.751 120.183 221.793 122.903 221.195 127.168C220.948 128.934 218.576 128.571 218.148 124.088" stroke="#3C3C3C" stroke-linecap="round" stroke-linejoin="round"/>
<path d="M228.385 142.636C229.543 140.105 237.62 125.338 236.703 124.916C235.701 124.454 230.244 129.308 230.244 129.308C230.244 129.308 223.845 130.193 224.272 134.284" stroke="#3C3C3C" stroke-linecap="round" stroke-linejoin="round"/>
<path d="M230.213 129.308C232.895 118.664 230.855 109.725 230.305 111.314C229.266 114.332 227.989 122.39 227.197 125.953" stroke="#3C3C3C" stroke-linecap="round" stroke-linejoin="round"/>
<path d="M216.687 125.953C217.295 125.789 217.941 125.828 218.525 126.064" stroke="#3C3C3C" stroke-linecap="round" stroke-linejoin="round"/>
<path d="M128.754 107.318C134.604 105.824 164.219 109.758 162.94 112.656C155.597 113.779 144.575 112.669 138.229 116.316C137.803 116.561 136.305 117.6 135.487 118.176" stroke="#3C3C3C" stroke-linecap="round" stroke-linejoin="round"/>
<path d="M129.576 107.166C140.972 104.482 153.586 89.5374 142.983 104.665C141.977 106.342 141.49 107.288 142.922 107.623" stroke="#3C3C3C" stroke-linecap="round" stroke-linejoin="round"/>
<path d="M138.656 116.072C144.445 113.784 174.823 121.439 153.738 113.327" stroke="#3C3C3C" stroke-linecap="round" stroke-linejoin="round"/>
<path d="M138.687 116.041C141.092 114.757 164.128 124.067 151.94 116.377" stroke="#3C3C3C" stroke-linecap="round" stroke-linejoin="round"/>
<path d="M67.9763 169.415C72.6685 171.983 74.317 176.587 72.7295 177.832C71.9243 178.253 71.0057 178.402 70.1091 178.259" stroke="#3C3C3C" stroke-linecap="round" stroke-linejoin="round"/>
<path d="M69.7405 166.7C74.4327 169.268 76.0732 173.861 74.4936 175.118C74.1147 175.362 73.6894 175.527 73.2444 175.599" stroke="#3C3C3C" stroke-linecap="round" stroke-linejoin="round"/>
<path d="M49.78 176.185C55.1235 175.224 60.6314 175.848 65.6238 177.985" stroke="#3C3C3C" stroke-linecap="round" stroke-linejoin="round"/>
<path d="M65.3193 172.068C69.7677 174.691 70.9496 178.375 69.463 179.723C67.7199 181.301 61.8763 180.486 60.231 176.307" stroke="#3C3C3C" stroke-linecap="round" stroke-linejoin="round"/>
<path d="M52.2175 158.862C56.1785 158.74 71.477 159.441 71.5348 160.6C71.6005 161.942 67.9699 162.705 67.9699 162.705" stroke="#3C3C3C" stroke-linecap="round" stroke-linejoin="round"/>
<path d="M52.248 158.892C57.2238 159.252 62.1148 160.374 66.7512 162.217C66.7512 162.217 79.3108 167.032 85.0004 168.286C86.8927 168.702 81.4725 170.939 72.1137 168.408" stroke="#3C3C3C" stroke-linecap="round" stroke-linejoin="round"/>
<path d="M34.4238 152.03C33.2529 152.731 32.2201 153.64 31.377 154.714" stroke="#3C3C3C" stroke-linecap="round" stroke-linejoin="round"/>
<path d="M67.513 151.573L68.6404 159.746" stroke="#3C3C3C" stroke-linecap="round" stroke-linejoin="round"/>
<path d="M268.696 210.983C266.654 216.229 264.217 223.884 265.007 228.947C255.656 231.418 245.823 231.386 236.488 228.856C228.414 210.953 230.12 198.084 235.3 189.367" stroke="#3C3C3C" stroke-linecap="round" stroke-linejoin="round"/>
<path d="M252.106 151.89C261.104 144.317 274.659 148.662 270.067 164.177C270.067 164.177 297.328 168.142 283.412 195.408" stroke="#3C3C3C" stroke-linecap="round" stroke-linejoin="round"/>
<path d="M265.009 228.941C266.875 229.856 268.55 231.119 269.945 232.662" stroke="#3C3C3C" stroke-linecap="round" stroke-linejoin="round"/>
<path d="M263.76 183.2L259.311 193.356C259.034 193.984 258.559 194.506 257.961 194.841C257.361 195.177 256.67 195.308 255.99 195.217L244.32 193.6C243.849 193.533 243.4 193.361 243.004 193.096C242.608 192.831 242.277 192.482 242.034 192.072C241.792 191.663 241.644 191.204 241.602 190.729C241.559 190.255 241.625 189.777 241.792 189.33L244.686 181.736" stroke="#3C3C3C" stroke-linecap="round" stroke-linejoin="round"/>
<path d="M61.2972 84.3525L59.2558 74.1658C59.1808 73.6468 58.9394 73.166 58.568 72.7962C58.1966 72.4264 57.7152 72.1872 57.1965 72.1148C56.6775 72.0424 56.1491 72.1406 55.6908 72.3947C55.2325 72.6488 54.869 73.045 54.655 73.5237C54.474 73.0233 54.1364 72.5949 53.6925 72.3021C53.2487 72.0093 52.7222 71.8677 52.1914 71.8986C51.6607 71.9294 51.1542 72.131 50.7472 72.4732C50.34 72.8156 50.0542 73.2802 49.9324 73.7982C49.773 73.2188 49.3985 72.7224 48.8857 72.41C48.3728 72.0976 47.7601 71.9931 47.1728 72.1177C46.5856 72.2422 46.068 72.5866 45.7257 73.0803C45.3835 73.5739 45.2426 74.1799 45.3316 74.7741C45.1364 74.2001 44.7254 73.7247 44.1858 73.449C43.6462 73.1734 43.0204 73.1192 42.4414 73.2977C41.8624 73.4763 41.3759 73.8738 41.0849 74.4057C40.794 74.9377 40.7216 75.5621 40.8831 76.1466C42.0831 79.763 43.1 83.4378 43.93 87.1568C44.921 91.9724 45.439 97.138 43.9925 99.8829" stroke="#3C3C3C" stroke-linecap="round" stroke-linejoin="round"/>
<path fill-rule="evenodd" clip-rule="evenodd" d="M146.913 17.7745C146.913 18.1303 146.808 18.478 146.611 18.7738C146.413 19.0696 146.133 19.3003 145.805 19.4366C145.476 19.5729 145.115 19.6088 144.767 19.5398C144.418 19.4708 144.098 19.2998 143.846 19.0486C143.595 18.7976 143.423 18.4773 143.353 18.1285C143.283 17.7798 143.318 17.4182 143.453 17.0893C143.589 16.7604 143.818 16.479 144.113 16.2807C144.408 16.0825 144.755 15.9761 145.111 15.9751C145.588 15.9746 146.046 16.164 146.384 16.5014C146.722 16.8389 146.912 17.2967 146.913 17.7745V17.7745Z" stroke="#3C3C3C" stroke-linecap="round" stroke-linejoin="round"/>
<path fill-rule="evenodd" clip-rule="evenodd" d="M154.744 17.7745C154.744 18.1304 154.638 18.4784 154.441 18.7743C154.243 19.0703 153.963 19.3008 153.634 19.4371C153.305 19.5732 152.945 19.6088 152.595 19.5395C152.247 19.47 151.926 19.2987 151.675 19.047C151.423 18.7953 151.252 18.4747 151.183 18.1256C151.114 17.7766 151.149 17.4148 151.285 17.0859C151.421 16.7572 151.652 16.4761 151.947 16.2783C152.243 16.0807 152.59 15.9751 152.946 15.9751C153.422 15.9759 153.879 16.1658 154.216 16.5031C154.553 16.8403 154.742 17.2976 154.744 17.7745Z" stroke="#3C3C3C" stroke-linecap="round" stroke-linejoin="round"/>
<path fill-rule="evenodd" clip-rule="evenodd" d="M162.605 17.7745C162.605 18.1304 162.499 18.4784 162.301 18.7743C162.104 19.0703 161.824 19.3008 161.495 19.4371C161.166 19.5732 160.805 19.6088 160.456 19.5395C160.108 19.47 159.787 19.2987 159.535 19.047C159.285 18.7953 159.113 18.4747 159.044 18.1256C158.974 17.7766 159.009 17.4148 159.146 17.0859C159.282 16.7572 159.513 16.4761 159.808 16.2783C160.104 16.0807 160.451 15.9751 160.807 15.9751C161.283 15.9759 161.74 16.1658 162.077 16.5031C162.414 16.8403 162.603 17.2976 162.605 17.7745Z" stroke="#3C3C3C" stroke-linecap="round" stroke-linejoin="round"/>
<path fill-rule="evenodd" clip-rule="evenodd" d="M225.369 256.823C225.369 257.348 225.213 257.862 224.921 258.297C224.631 258.734 224.217 259.074 223.733 259.275C223.249 259.475 222.715 259.528 222.202 259.425C221.687 259.323 221.214 259.071 220.843 258.7C220.473 258.329 220.221 257.855 220.118 257.34C220.016 256.827 220.069 256.292 220.269 255.807C220.47 255.322 220.81 254.908 221.246 254.618C221.68 254.326 222.194 254.17 222.718 254.17C223.42 254.17 224.095 254.449 224.593 254.947C225.088 255.444 225.369 256.12 225.369 256.823V256.823Z" stroke="#3C3C3C" stroke-linecap="round" stroke-linejoin="round"/>
<path d="M74.5657 57.3624V70.538" stroke="#3C3C3C" stroke-linecap="round" stroke-linejoin="round"/>
<path d="M81.1325 63.9502H67.97" stroke="#3C3C3C" stroke-linecap="round" stroke-linejoin="round"/>
<path d="M258.123 256.976C255.211 260.426 252.725 264.215 250.719 268.261C249.511 270.253 248.52 272.37 247.763 274.574C245.619 280.793 247.422 280.638 250.688 275.763C258.99 263.371 262.906 262.161 265.923 259.477" stroke="#3C3C3C" stroke-linecap="round" stroke-linejoin="round"/>
<path d="M248.434 272.744C246.484 274.094 244.364 275.181 242.13 275.974C241.489 276.147 240.486 275.64 243.593 272.954C244.263 272.375 247.034 269.871 247.98 268.928C249.959 267.115 251.832 265.19 253.593 263.164" stroke="#3C3C3C" stroke-linecap="round" stroke-linejoin="round"/>
<path d="M255.899 259.812C257.209 257.067 250.871 258.891 248.099 259.331C245.6 259.722 242.646 259.244 248.921 256.159C252.197 254.584 255.185 252.468 257.757 249.898" stroke="#3C3C3C" stroke-linecap="round" stroke-linejoin="round"/>
<path fill-rule="evenodd" clip-rule="evenodd" d="M137.529 26.8328L134.604 34.549L142.282 31.4076C145.453 33.4772 149.161 34.5694 152.946 34.549C163.092 34.549 171.319 27.0463 171.319 17.7745C171.319 8.50278 163.123 1 152.976 1C142.83 1 134.604 8.50278 134.604 17.7745C134.621 21.0238 135.643 24.1882 137.529 26.8328Z" stroke="#3C3C3C" stroke-linecap="round" stroke-linejoin="round"/>
<path d="M280.517 223.518L282.833 221.719" stroke="#3C3C3C" stroke-linecap="round" stroke-linejoin="round"/>
<path d="M97.0967 121.988L99.5342 123.727" stroke="#3C3C3C" stroke-linecap="round" stroke-linejoin="round"/>
<path d="M24.034 152.884L22.8762 155.659" stroke="#3C3C3C" stroke-linecap="round" stroke-linejoin="round"/>
<path fill-rule="evenodd" clip-rule="evenodd" d="M45.9411 160.265C45.6037 160.265 45.2737 160.364 44.9932 160.552C44.7126 160.74 44.4938 161.006 44.3648 161.319C44.2357 161.631 44.2018 161.974 44.2676 162.307C44.3335 162.637 44.4959 162.942 44.7346 163.18C44.9732 163.419 45.2772 163.581 45.6082 163.649C45.9392 163.714 46.2822 163.681 46.5941 163.551C46.9059 163.421 47.1724 163.202 47.3598 162.921C47.5473 162.64 47.6474 162.31 47.6474 161.973C47.6403 161.522 47.4583 161.091 47.1398 160.772C46.8213 160.454 46.3914 160.271 45.9411 160.265V160.265Z" stroke="#3C3C3C"/>
<path fill-rule="evenodd" clip-rule="evenodd" d="M21.1699 169.598C22.1122 169.598 22.8761 168.833 22.8761 167.89C22.8761 166.946 22.1122 166.182 21.1699 166.182C20.2274 166.182 19.4636 166.946 19.4636 167.89C19.4636 168.833 20.2274 169.598 21.1699 169.598Z" stroke="#3C3C3C"/>
<path fill-rule="evenodd" clip-rule="evenodd" d="M9.10422 146.754C10.0465 146.754 10.8105 145.989 10.8105 145.046C10.8105 144.102 10.0465 143.338 9.10422 143.338C8.16193 143.338 7.39795 144.102 7.39795 145.046C7.39795 145.989 8.16193 146.754 9.10422 146.754Z" stroke="#3C3C3C"/>
<path fill-rule="evenodd" clip-rule="evenodd" d="M29.6706 132.267C30.6129 132.267 31.3769 131.502 31.3769 130.559C31.3769 129.615 30.6129 128.851 29.6706 128.851C28.7283 128.851 27.9644 129.615 27.9644 130.559C27.9644 131.502 28.7283 132.267 29.6706 132.267Z" stroke="#3C3C3C"/>
<path fill-rule="evenodd" clip-rule="evenodd" d="M37.5317 108.996C37.1942 108.996 36.8643 109.096 36.5838 109.284C36.3032 109.471 36.0845 109.738 35.9554 110.05C35.8261 110.362 35.7924 110.706 35.8582 111.037C35.9241 111.368 36.0865 111.672 36.3252 111.911C36.5638 112.15 36.8678 112.313 37.1988 112.379C37.5298 112.445 37.8728 112.411 38.1847 112.282C38.4965 112.152 38.7628 111.933 38.9505 111.653C39.1379 111.372 39.238 111.041 39.238 110.704C39.2309 110.253 39.0489 109.823 38.7304 109.504C38.412 109.185 37.982 109.003 37.5317 108.996Z" stroke="#3C3C3C"/>
<path fill-rule="evenodd" clip-rule="evenodd" d="M54.6247 126.136C54.2872 126.136 53.9573 126.236 53.6767 126.424C53.3962 126.612 53.1775 126.879 53.0484 127.191C52.9191 127.503 52.8855 127.846 52.9512 128.177C53.0171 128.509 53.1796 128.813 53.4182 129.052C53.6568 129.291 53.9608 129.453 54.2918 129.519C54.6228 129.585 54.9658 129.551 55.2777 129.422C55.5895 129.293 55.8558 129.074 56.0435 128.793C56.2309 128.512 56.331 128.182 56.331 127.844C56.3239 127.393 56.1419 126.963 55.8235 126.644C55.505 126.326 55.075 126.143 54.6247 126.136V126.136Z" stroke="#3C3C3C"/>
<path fill-rule="evenodd" clip-rule="evenodd" d="M40.7615 141.63C40.4239 141.63 40.094 141.73 39.8136 141.918C39.5329 142.105 39.3142 142.372 39.1851 142.684C39.0559 142.996 39.0222 143.34 39.0879 143.671C39.1538 144.002 39.3163 144.307 39.5549 144.546C39.7935 144.784 40.0976 144.947 40.4286 145.013C40.7595 145.079 41.1026 145.045 41.4145 144.916C41.7262 144.786 41.9927 144.568 42.1802 144.287C42.3677 144.006 42.4677 143.676 42.4677 143.338C42.468 143.113 42.4243 142.891 42.3386 142.684C42.2532 142.476 42.1274 142.288 41.9688 142.129C41.8104 141.97 41.6221 141.845 41.4149 141.759C41.2078 141.673 40.9857 141.629 40.7615 141.63V141.63Z" stroke="#3C3C3C"/>
<path fill-rule="evenodd" clip-rule="evenodd" d="M79.5771 132.267C80.5194 132.267 81.2834 131.502 81.2834 130.559C81.2834 129.615 80.5194 128.851 79.5771 128.851C78.6347 128.851 77.8708 129.615 77.8708 130.559C77.8708 131.502 78.6347 132.267 79.5771 132.267Z" stroke="#3C3C3C"/>
<path fill-rule="evenodd" clip-rule="evenodd" d="M95.9997 124.12C95.6623 124.12 95.3323 124.22 95.0518 124.408C94.7712 124.596 94.5524 124.862 94.4234 125.174C94.2943 125.486 94.2604 125.83 94.3262 126.161C94.3921 126.493 94.5545 126.797 94.7931 127.036C95.0318 127.275 95.3358 127.437 95.6668 127.503C95.9978 127.569 96.341 127.535 96.6527 127.406C96.9645 127.277 97.231 127.058 97.4184 126.777C97.6059 126.496 97.706 126.166 97.706 125.828C97.6989 125.377 97.5169 124.947 97.1984 124.628C96.8799 124.309 96.45 124.127 95.9997 124.12V124.12Z" stroke="#3C3C3C"/>
<path fill-rule="evenodd" clip-rule="evenodd" d="M116.688 131.26C117.63 131.26 118.394 130.495 118.394 129.552C118.394 128.609 117.63 127.844 116.688 127.844C115.746 127.844 114.982 128.609 114.982 129.552C114.982 130.495 115.746 131.26 116.688 131.26Z" stroke="#3C3C3C"/>
<path fill-rule="evenodd" clip-rule="evenodd" d="M125.737 112.869C126.68 112.869 127.444 112.104 127.444 111.161C127.444 110.218 126.68 109.453 125.737 109.453C124.795 109.453 124.031 110.218 124.031 111.161C124.031 112.104 124.795 112.869 125.737 112.869Z" stroke="#3C3C3C"/>
<path fill-rule="evenodd" clip-rule="evenodd" d="M62.9731 145.015C62.6356 145.015 62.3057 145.115 62.0251 145.303C61.7446 145.491 61.5259 145.758 61.3968 146.07C61.2675 146.382 61.2338 146.725 61.2996 147.056C61.3655 147.388 61.528 147.692 61.7666 147.931C62.0052 148.17 62.3092 148.332 62.6402 148.398C62.9712 148.464 63.3142 148.43 63.626 148.301C63.9379 148.172 64.2042 147.953 64.3917 147.672C64.5793 147.391 64.6794 147.061 64.6794 146.723C64.6723 146.272 64.4903 145.842 64.1718 145.523C63.8534 145.205 63.4234 145.022 62.9731 145.015V145.015Z" stroke="#3C3C3C"/>
<path fill-rule="evenodd" clip-rule="evenodd" d="M66.3552 111.802C67.2975 111.802 68.0614 111.037 68.0614 110.094C68.0614 109.151 67.2975 108.386 66.3552 108.386C65.4127 108.386 64.6489 109.151 64.6489 110.094C64.6489 111.037 65.4127 111.802 66.3552 111.802Z" stroke="#3C3C3C"/>
</svg>
