<svg width="311" height="275" viewBox="0 0 311 275" fill="none" xmlns="http://www.w3.org/2000/svg">
<path d="M246.903 120.208L197.503 116.499C192.718 116.135 187.916 116.93 183.501 118.817L170.36 124.442C168.593 127.664 166.421 130.645 163.898 133.312C157.558 140.112 133.247 152.752 120.414 155.41C117.39 155.95 114.274 155.404 111.613 153.865C105.799 158.55 99.7066 162.875 93.3701 166.818C93.3701 166.818 105.372 201.155 150.059 181.746L185.603 166.262L177.817 185.022C178.033 195.747 178.094 209.809 177.386 219.182C185.731 221.734 194.631 221.82 203.023 219.428C206.375 196.557 208.93 160.458 200.251 146.828L242.721 146.426C248.072 136.746 247.601 131.242 246.903 120.208Z" fill="#4A90E2"/>
<path d="M167.997 106.918L173.167 84.0784C173.282 83.5784 173.193 83.0533 172.922 82.6186C172.65 82.1838 172.218 81.8753 171.721 81.7604C171.223 81.6457 170.7 81.7342 170.268 82.0067C169.834 82.2792 169.528 82.713 169.413 83.213L163.319 110.133" fill="#4A90E2"/>
<path d="M167.997 106.918L173.167 84.0784C173.282 83.5784 173.193 83.0533 172.922 82.6186C172.65 82.1838 172.218 81.8753 171.721 81.7604C171.223 81.6457 170.7 81.7342 170.268 82.0067C169.834 82.2792 169.528 82.713 169.413 83.213L163.319 110.133C164.085 112.971 166.144 116.778 167.997 106.918Z" fill="#4A90E2"/>
<path d="M163.996 20.3784C163.996 24.2111 162.864 27.9576 160.744 31.1444C158.624 34.3312 155.611 36.8149 152.085 38.2817C148.559 39.7485 144.68 40.1322 140.937 39.3844C137.194 38.6368 133.756 36.7912 131.057 34.081C128.359 31.3708 126.521 27.9179 125.777 24.1589C125.032 20.3998 125.414 16.5035 126.875 12.9626C128.335 9.4217 130.808 6.39514 133.981 4.26584C137.154 2.13655 140.885 1 144.701 1C149.818 1.00309 154.724 3.04568 158.342 6.67915C161.959 10.3126 163.993 15.2399 163.996 20.3784Z" fill="#4A90E2"/>
<path d="M264.773 122.456C261.219 130.921 256.198 138.686 249.945 145.389C253.374 145.916 256.803 146.695 259.738 147.157C262.794 145.818 265.661 144.077 268.261 141.978C276.39 135.4 293.136 127.238 296.804 122.583C290.163 121.618 273.914 122.27 264.773 122.456Z" fill="#CBE0F8"/>
<path d="M201.935 238.517C193.375 235.27 185.455 230.521 178.55 224.489C178.149 227.935 177.531 231.411 177.16 234.39C178.609 237.412 180.448 240.229 182.628 242.769C189.456 250.651 198.199 267.16 202.951 270.698C203.696 263.995 202.462 247.703 201.935 238.517Z" fill="#CBE0F8"/>
<path d="M95.8846 140.144C95.2668 140.454 94.6181 140.734 93.9694 141.013C90.9396 137.436 88.0927 133.708 85.4401 129.842C85.7181 130.495 94.2441 149.019 108.392 156.002C109.319 155.257 110.215 154.543 111.049 153.829C105.763 150.943 100.271 145.358 95.8846 140.144Z" fill="#CBE0F8"/>
<path d="M177.129 169.78C177.129 169.78 177.407 176.328 177.562 185.048L185.315 166.242L177.129 169.78Z" fill="#CBE0F8"/>
<path d="M93.9385 58.7163C93.9385 58.7163 88.5293 48.5362 75.8052 54.7442C63.0812 60.9522 65.5493 85.9003 65.5493 85.9003C65.5493 85.9003 54.2414 91.3309 48.2176 100.485C38.8883 114.667 43.5855 136.079 72.5958 136.079C71.2128 129.966 70.734 123.682 71.1748 117.429C71.9471 106.412 75.9321 96.3271 79.4537 85.9934C83.9443 72.635 82.9802 73.7031 84.5508 68.8017C80.8113 65.233 85.2613 60.9506 87.2692 64.4246C88.1195 65.8292 88.3228 65.8847 89.0024 66.0986C92.6833 67.2566 99.3624 68.5485 102.985 67.3432C102.99 67.2485 103.299 58.7163 93.9385 58.7163Z" fill="#CBE0F8"/>
<path d="M87.0805 90.3068L83.7753 81.9902C84.8778 83.4744 86.177 84.8003 87.6367 85.9313C87.365 87.3774 87.1793 88.8385 87.0805 90.3068Z" fill="#CBE0F8"/>
<path d="M130.792 231.225C131.006 232.275 130.905 233.364 130.502 234.356C130.099 235.347 129.413 236.197 128.53 236.798C127.646 237.397 126.606 237.72 125.54 237.727C124.473 237.732 123.429 237.42 122.54 236.83C121.65 236.241 120.954 235.398 120.541 234.411C120.127 233.423 120.014 232.336 120.216 231.284C120.418 230.232 120.927 229.263 121.676 228.502C122.426 227.741 123.384 227.22 124.428 227.005C125.122 226.858 125.838 226.851 126.535 226.985C127.231 227.119 127.895 227.388 128.486 227.782C129.078 228.174 129.587 228.68 129.982 229.272C130.378 229.863 130.653 230.526 130.792 231.225Z" fill="#CBE0F8"/>
<path fill-rule="evenodd" clip-rule="evenodd" d="M163.758 20.4189C163.758 24.2597 162.621 28.014 160.492 31.2075C158.363 34.401 155.337 36.8899 151.796 38.3597C148.256 39.8296 144.36 40.2141 140.601 39.4647C136.842 38.7156 133.389 36.8661 130.68 34.1503C127.97 31.4344 126.124 27.9743 125.376 24.2074C124.629 20.4405 125.012 16.536 126.479 12.9876C127.946 9.43932 130.429 6.40643 133.616 4.27268C136.802 2.13892 140.549 1 144.381 1C149.519 1.0031 154.446 3.04997 158.08 6.69104C161.712 10.3321 163.755 15.2697 163.758 20.4189V20.4189Z" stroke="#3C3C3C" stroke-width="1.1"/>
<path d="M206.128 181.44L222.106 189.523C225.385 191.178 229.186 191.461 232.674 190.312C236.163 189.163 239.053 186.674 240.712 183.391L259.008 147.093" stroke="#3C3C3C" stroke-width="1.1" stroke-linecap="round" stroke-linejoin="round"/>
<path d="M270.106 123.864C269.969 124.136 270.078 124.466 270.349 124.603C270.62 124.74 270.951 124.631 271.088 124.36L270.106 123.864ZM281.877 101.751L282.368 101.999L282.368 101.998L281.877 101.751ZM282.664 91.1606L282.142 91.3321V91.3321L282.664 91.1606ZM275.758 83.1062L276.007 82.6157L276.006 82.6155L275.758 83.1062ZM163.106 25.4533C162.835 25.3161 162.504 25.4245 162.366 25.6955C162.229 25.9665 162.338 26.2975 162.609 26.4347L163.106 25.4533ZM98.3676 100.085C98.2309 100.357 98.34 100.687 98.6113 100.824C98.8826 100.961 99.2133 100.851 99.35 100.58L98.3676 100.085ZM132.105 35.5551C132.242 35.2839 132.133 34.9532 131.862 34.8165C131.59 34.6798 131.26 34.789 131.123 35.0603L132.105 35.5551ZM271.088 124.36L282.368 101.999L281.386 101.503L270.106 123.864L271.088 124.36ZM282.368 101.998C284.085 98.5815 284.379 94.6224 283.187 90.9892L282.142 91.3321C283.243 94.6892 282.971 98.3475 281.385 101.504L282.368 101.998ZM283.187 90.9892C281.995 87.3557 279.413 84.3442 276.007 82.6157L275.509 83.5966C278.655 85.1931 281.04 87.9749 282.142 91.3321L283.187 90.9892ZM276.006 82.6155L163.106 25.4533L162.609 26.4347L275.509 83.5969L276.006 82.6155ZM99.35 100.58L132.105 35.5551L131.123 35.0603L98.3676 100.085L99.35 100.58Z" fill="#3C3C3C"/>
<path d="M282.402 90.2916L188.111 105.529L153.257 37.6948" stroke="#3C3C3C" stroke-width="1.1" stroke-linecap="round" stroke-linejoin="round"/>
<path d="M136.447 186.612C129.412 194.363 120.892 200.614 111.395 204.993C101.897 209.372 91.6172 211.79 81.1673 212.101C70.7173 212.413 60.3119 210.611 50.5715 206.805C40.8312 202.999 31.9556 197.266 24.4741 189.949C16.9926 182.63 11.0584 173.878 7.02555 164.212C2.99272 154.545 0.943866 144.163 1.00117 133.687C1.05847 123.21 3.22078 112.852 7.35911 103.23C11.4974 93.6092 17.5271 84.9218 25.0881 77.6863" stroke="#3C3C3C" stroke-width="1.1" stroke-linecap="round" stroke-linejoin="round"/>
<path d="M87.1769 93.3886C87.0901 91.0411 87.289 88.6917 87.769 86.3924C91.5361 88.9173 94.6493 87.3476 96.9346 84.0809C99.8658 79.3267 101.371 73.8277 101.269 68.24" stroke="#3C3C3C" stroke-width="1.1" stroke-linecap="round" stroke-linejoin="round"/>
<path d="M85.5358 130.275C88.1886 134.134 91.0354 137.855 94.0655 141.425C98.9356 139.379 103.422 136.516 107.332 132.958C110.228 130.324 112.826 127.378 115.081 124.174C109.748 117.186 104.806 109.907 100.279 102.37C98.0736 98.6946 94.7638 95.813 90.8238 94.1384C89.1338 93.4804 87.309 93.2464 85.5082 93.457C84.1708 93.8086 82.7699 93.8398 81.4182 93.5482C80.0667 93.2565 78.8027 92.6502 77.7284 91.7781" stroke="#3C3C3C" stroke-width="1.1" stroke-linecap="round" stroke-linejoin="round"/>
<path d="M247.264 122.873C251.467 123.028 259.811 122.997 264.91 122.904C261.364 131.35 256.353 139.099 250.109 145.792C248.533 145.544 245.195 145.204 243.681 145.111" stroke="#3C3C3C" stroke-width="1.1" stroke-linecap="round" stroke-linejoin="round"/>
<path fill-rule="evenodd" clip-rule="evenodd" d="M296.988 123.028C298.749 123.276 299.881 123.68 300.016 124.236C300.872 127.754 282.502 136.298 274.242 142.974C271.839 144.939 269.152 146.527 266.272 147.681C264.17 148.067 262.013 148.027 259.928 147.557C262.991 146.224 265.862 144.486 268.464 142.388C276.574 135.835 293.312 127.705 296.988 123.028Z" stroke="#3C3C3C" stroke-width="1.1" stroke-linecap="round" stroke-linejoin="round"/>
<path fill-rule="evenodd" clip-rule="evenodd" d="M264.945 122.904C274.092 122.718 290.348 122.068 296.988 123.028C293.31 127.674 276.566 135.827 268.432 142.385C265.831 144.483 262.963 146.222 259.902 147.557C256.966 147.093 253.536 146.318 250.105 145.792C256.363 139.102 261.387 131.353 264.945 122.904V122.904Z" stroke="#3C3C3C" stroke-width="1.1" stroke-linecap="round" stroke-linejoin="round"/>
<path d="M201.709 220.248C201.431 224.894 201.709 231.739 202.08 238.769C193.527 235.522 185.618 230.782 178.716 224.77C178.901 223.191 179.025 221.611 179.056 220.125" stroke="#3C3C3C" stroke-width="1.1" stroke-linecap="round" stroke-linejoin="round"/>
<path fill-rule="evenodd" clip-rule="evenodd" d="M203.1 270.855C202.914 272.648 202.578 273.773 202.018 273.952C198.571 275.053 189.342 256.829 182.394 248.804C180.334 246.465 178.646 243.822 177.387 240.968C176.935 238.877 176.902 236.715 177.294 234.611C178.739 237.63 180.578 240.442 182.765 242.973C189.596 250.874 198.34 267.325 203.1 270.855Z" stroke="#3C3C3C" stroke-width="1.1" stroke-linecap="round" stroke-linejoin="round"/>
<path fill-rule="evenodd" clip-rule="evenodd" d="M202.08 238.738C202.605 247.906 203.841 264.167 203.1 270.85C198.34 267.32 189.573 250.861 182.768 242.976C180.583 240.443 178.744 237.631 177.298 234.614C177.668 231.641 178.287 228.17 178.688 224.733C185.595 230.754 193.516 235.496 202.08 238.738V238.738Z" stroke="#3C3C3C" stroke-width="1.1" stroke-linecap="round" stroke-linejoin="round"/>
<path d="M108.501 156.384C94.3467 149.416 85.817 130.926 85.5356 130.275" stroke="#3C3C3C" stroke-width="1.1" stroke-linecap="round" stroke-linejoin="round"/>
<path d="M95.9849 140.558C100.377 145.761 105.878 151.362 111.159 154.25C113.839 155.773 116.965 156.309 119.998 155.768C132.896 153.16 157.299 140.437 163.666 133.623C175.195 121.284 174.248 111.883 173.246 96.1792C172.839 89.7992 172.039 89.9524 171.083 92.9191C169.659 97.3464 167.864 108.079 166.385 112.307C166.247 112.733 165.962 113.095 165.582 113.329C164.443 113.981 163.726 112.555 163.142 110.542C162.522 108.405 162.08 105.559 161.504 103.858C160.494 100.861 158.433 98.1288 158.104 106.925C157.912 112.097 157.899 121.005 152.295 124.268C147.932 126.76 143.386 128.913 138.697 130.71C133.845 132.614 128.764 133.864 123.584 134.427C120.772 134.577 117.002 131.361 113.417 126.375" stroke="#3C3C3C" stroke-width="1.1" stroke-linecap="round" stroke-linejoin="round"/>
<path d="M167.776 107.14L172.968 84.2521C173.083 83.751 172.994 83.2248 172.722 82.7892C172.449 82.3535 172.015 82.0443 171.515 81.9292C171.016 81.8143 170.491 81.903 170.056 82.176C169.62 82.449 169.313 82.8838 169.197 83.3849L163.078 110.361" stroke="#3C3C3C" stroke-width="1.1" stroke-linecap="round" stroke-linejoin="round"/>
<path d="M177.273 170.165C182.094 168.089 185.461 166.604 185.461 166.604L177.696 185.373" stroke="#3C3C3C" stroke-width="1.1" stroke-linecap="round" stroke-linejoin="round"/>
<path d="M111.159 154.247C105.321 158.927 99.2005 163.242 92.8324 167.165C82.4495 159.903 75.2393 148.928 72.6859 136.5" stroke="#3C3C3C" stroke-width="1.1" stroke-linecap="round" stroke-linejoin="round"/>
<path d="M170.125 124.701L184.619 118.537C188.209 117.017 192.106 116.37 195.992 116.648L247.017 120.458C248.165 131.159 248.028 137.314 242.814 146.721L200.226 147.124" stroke="#3C3C3C" stroke-width="1.1" stroke-linecap="round" stroke-linejoin="round"/>
<path fill-rule="evenodd" clip-rule="evenodd" d="M94.0377 59.2893C94.0377 59.2893 88.6261 49.1291 75.8967 55.325C63.1673 61.5209 65.6364 86.4201 65.6364 86.4201C65.6364 86.4201 54.3238 91.84 48.2974 100.977C38.9642 115.13 43.6633 136.5 72.6859 136.5C71.3024 130.4 70.8234 124.128 71.2643 117.887C72.0369 106.892 76.0236 96.8264 79.5467 86.513C80.3502 84.1282 82.2663 78.3056 82.9153 75.8882C83.5025 73.629 83.7806 72.0478 84.646 69.3549C80.9049 65.7932 85.3568 61.5192 87.3656 64.9864C88.252 66.4534 88.4245 66.3687 89.3955 66.6898C91.7995 67.482 98.2765 69.28 103.096 67.8308C103.093 67.8357 103.402 59.2893 94.0377 59.2893Z" stroke="#3C3C3C" stroke-width="1.1" stroke-linecap="round" stroke-linejoin="round"/>
<path fill-rule="evenodd" clip-rule="evenodd" d="M33.0307 64.6147C22.0747 69.9108 11.7664 76.4588 2.31154 84.1282C2.04544 84.2941 1.82346 84.5222 1.66464 84.7929C1.50583 85.0637 1.41494 85.369 1.39974 85.6826C1.38453 85.9962 1.44551 86.3091 1.57741 86.5938C1.70931 86.8788 1.9082 87.1273 2.15702 87.3182L9.20329 92.924C13.473 87.3117 19.2619 82.5682 25.0785 77.6683C20.6014 83.4724 16.6804 89.6865 13.3673 96.2281L20.9486 102.246C21.1933 102.441 21.481 102.574 21.7876 102.634C22.0942 102.694 22.4106 102.679 22.7104 102.591C23.0101 102.503 23.2845 102.344 23.5103 102.128C23.7361 101.912 23.9068 101.644 24.0082 101.348L35.9357 66.9164C36.0749 66.5304 36.0896 66.1101 35.9775 65.7153C35.8653 65.3205 35.632 64.9711 35.3108 64.7166C34.9894 64.462 34.5962 64.3151 34.187 64.2969C33.7779 64.2786 33.3732 64.3898 33.0307 64.6147V64.6147Z" stroke="#3C3C3C" stroke-width="1.1" stroke-linecap="round" stroke-linejoin="round"/>
<path fill-rule="evenodd" clip-rule="evenodd" d="M242.566 5.58532C236.416 2.51754 229.525 6.88937 230.514 13.3281L227.64 15.99L231.595 16.2997C235.088 22.2152 243.957 22.4646 246.862 16.6404C247.75 14.6028 247.796 12.296 246.991 10.2243C246.185 8.15267 244.595 6.48479 242.566 5.58532Z" stroke="#3C3C3C" stroke-width="1.1" stroke-linecap="round" stroke-linejoin="round"/>
<path fill-rule="evenodd" clip-rule="evenodd" d="M279.157 184.537C278.224 184.053 277.204 183.758 276.158 183.668C275.11 183.578 274.055 183.696 273.053 184.015C272.052 184.335 271.122 184.848 270.32 185.528C269.517 186.208 268.855 187.039 268.372 187.975C268.372 187.975 263.149 198.197 258.76 197.885L280.579 209.19C277.767 205.783 282.588 195.347 282.588 195.347C283.071 194.412 283.367 193.39 283.455 192.34C283.544 191.29 283.427 190.234 283.108 189.23C282.789 188.226 282.277 187.295 281.599 186.49C280.92 185.684 280.091 185.021 279.157 184.537V184.537Z" stroke="#3C3C3C" stroke-width="1.1" stroke-linecap="round" stroke-linejoin="round"/>
<path d="M273.254 205.411C272.763 206.365 271.913 207.082 270.893 207.408C269.873 207.733 268.767 207.638 267.815 207.146C266.864 206.653 266.148 205.801 265.823 204.779C265.499 203.757 265.593 202.648 266.085 201.695" stroke="#3C3C3C" stroke-width="1.1" stroke-linecap="round" stroke-linejoin="round"/>
<path d="M302.954 66.2271L297.175 86.1725" stroke="#3C3C3C" stroke-width="1.1" stroke-linecap="round" stroke-linejoin="round"/>
<path d="M310 79.0799L290.098 73.2883" stroke="#3C3C3C" stroke-width="1.1" stroke-linecap="round" stroke-linejoin="round"/>
<path d="M177.727 209.407C186.506 210.854 195.448 211.019 204.274 209.896" stroke="#3C3C3C" stroke-width="1.1" stroke-linecap="round" stroke-linejoin="round"/>
<path d="M235.211 119.652C236.603 128.944 235.104 138.439 230.915 146.845" stroke="#3C3C3C" stroke-width="1.1" stroke-linecap="round" stroke-linejoin="round"/>
<path fill-rule="evenodd" clip-rule="evenodd" d="M130.907 231.46C131.121 232.508 131.02 233.595 130.617 234.585C130.214 235.574 129.527 236.422 128.644 237.022C127.76 237.62 126.719 237.943 125.652 237.949C124.586 237.954 123.541 237.643 122.651 237.054C121.761 236.466 121.065 235.625 120.651 234.64C120.237 233.654 120.125 232.568 120.327 231.518C120.529 230.469 121.037 229.502 121.787 228.742C122.537 227.983 123.496 227.463 124.541 227.248C125.235 227.101 125.951 227.094 126.648 227.228C127.345 227.362 128.008 227.631 128.6 228.024C129.192 228.415 129.701 228.92 130.097 229.51C130.493 230.1 130.768 230.762 130.907 231.46V231.46Z" stroke="#3C3C3C" stroke-width="1.1" stroke-linecap="round" stroke-linejoin="round"/>
<path fill-rule="evenodd" clip-rule="evenodd" d="M128.466 214.519C130.537 212.577 133.137 211.294 135.937 210.835C138.736 210.373 141.609 210.755 144.192 211.93C146.774 213.105 148.952 215.022 150.448 217.438C151.944 219.852 152.691 222.659 152.596 225.5C152.501 228.342 151.568 231.09 149.913 233.4C148.259 235.709 145.959 237.475 143.303 238.474C140.648 239.473 137.756 239.661 134.994 239.014C132.232 238.366 129.723 236.912 127.786 234.836C125.189 232.05 123.802 228.346 123.929 224.535C124.057 220.726 125.688 217.123 128.466 214.519Z" stroke="#3C3C3C" stroke-width="1.1" stroke-linecap="round" stroke-linejoin="round"/>
<path d="M92.8324 167.165C92.8324 167.165 104.885 201.574 149.762 182.124L177.273 170.165C177.615 183.176 178.334 205.196 177.241 219.629C185.621 222.186 194.557 222.273 202.984 219.877C206.353 196.956 208.957 160.777 200.234 147.124C188.932 129.433 154.186 140.774 154.186 140.774" stroke="#3C3C3C" stroke-width="1.1" stroke-linecap="round" stroke-linejoin="round"/>
<path d="M87.769 86.3923C86.2799 85.3286 84.9716 84.0312 83.8945 82.5503L87.1769 90.818" stroke="#3C3C3C" stroke-width="1.1" stroke-linecap="round" stroke-linejoin="round"/>
</svg>
