<svg width="318" height="307" viewBox="0 0 318 307" fill="none" xmlns="http://www.w3.org/2000/svg">
<path d="M286.238 80.3245L283.896 109.439C273.22 109.654 262.539 109.305 251.898 108.393L232.021 133.096L221.608 104.617C197.232 104.44 175.887 100.08 152.265 94.0865C150.306 96.9865 148.981 100.268 148.375 103.717C147.77 107.166 147.898 110.704 148.752 114.1C167.491 118.718 182.518 122.445 201.764 124.153L211.037 121.362C209.866 134.59 210.025 147.903 211.512 161.099C224.14 159.831 238.382 161.511 253.639 165C254.389 152.418 255.305 142.413 258.608 131.098C269.817 132.078 281.084 132.226 292.315 131.542C295.383 131.26 298.251 129.898 300.412 127.698C302.574 125.498 303.887 122.602 304.12 119.524L307 82.0687C300.257 80.1512 293.206 79.5588 286.238 80.3245Z" fill="#CBE0F8"/>
<path d="M236.769 94.6555L233.576 97.6922L234.493 94.847L236.769 94.6555Z" fill="#4A90E2"/>
<path d="M201.512 124.485C204.381 124.736 207.41 124.946 210.499 125.102C210.589 123.965 210.693 122.837 210.777 121.701L201.512 124.485Z" fill="#4A90E2"/>
<path d="M153.764 110.092C153.605 109.901 153.392 109.762 153.154 109.692C152.915 109.623 152.662 109.625 152.425 109.699C152.187 109.774 151.978 109.917 151.822 110.11C151.666 110.304 151.571 110.539 151.549 110.787C151.527 111.035 151.579 111.283 151.698 111.501C151.817 111.719 151.998 111.897 152.218 112.012C152.438 112.128 152.688 112.175 152.935 112.148C153.182 112.122 153.415 112.023 153.606 111.863C153.733 111.758 153.838 111.628 153.914 111.482C153.991 111.335 154.038 111.175 154.053 111.011C154.067 110.846 154.05 110.68 154 110.523C153.95 110.365 153.87 110.219 153.764 110.092Z" fill="#4A90E2"/>
<path d="M183.709 104.999C183.549 104.808 183.338 104.669 183.098 104.599C182.86 104.529 182.607 104.531 182.369 104.605C182.131 104.68 181.922 104.823 181.767 105.016C181.61 105.21 181.516 105.445 181.494 105.693C181.471 105.941 181.522 106.189 181.642 106.408C181.762 106.626 181.942 106.804 182.163 106.919C182.383 107.034 182.632 107.081 182.88 107.055C183.127 107.028 183.36 106.929 183.551 106.769C183.678 106.663 183.782 106.534 183.859 106.387C183.935 106.241 183.982 106.081 183.997 105.917C184.012 105.753 183.994 105.587 183.944 105.429C183.896 105.272 183.816 105.126 183.709 104.999Z" fill="#4A90E2"/>
<path d="M207.481 119.645C207.377 119.518 207.247 119.413 207.1 119.337C206.954 119.26 206.794 119.213 206.629 119.198C206.465 119.184 206.298 119.201 206.142 119.251C205.984 119.301 205.837 119.381 205.711 119.487C205.581 119.591 205.474 119.72 205.396 119.867C205.318 120.013 205.27 120.174 205.256 120.339C205.241 120.504 205.26 120.671 205.311 120.829C205.361 120.987 205.444 121.133 205.553 121.258C205.659 121.385 205.789 121.49 205.935 121.566C206.082 121.643 206.242 121.69 206.405 121.704C206.569 121.719 206.736 121.701 206.892 121.652C207.05 121.602 207.197 121.522 207.323 121.416C207.45 121.311 207.555 121.181 207.631 121.034C207.708 120.888 207.754 120.728 207.769 120.564C207.784 120.399 207.766 120.233 207.716 120.076C207.668 119.918 207.588 119.772 207.481 119.645Z" fill="#4A90E2"/>
<path d="M261.277 125.94C261.437 126.131 261.649 126.27 261.888 126.339C262.126 126.409 262.381 126.407 262.617 126.333C262.853 126.258 263.063 126.115 263.22 125.922C263.376 125.728 263.471 125.493 263.493 125.245C263.514 124.997 263.463 124.749 263.344 124.531C263.225 124.313 263.043 124.135 262.823 124.019C262.604 123.904 262.354 123.857 262.106 123.883C261.86 123.91 261.627 124.009 261.435 124.168C261.309 124.274 261.204 124.404 261.128 124.55C261.051 124.697 261.003 124.857 260.989 125.021C260.974 125.186 260.993 125.352 261.041 125.509C261.091 125.667 261.171 125.813 261.277 125.94Z" fill="#4A90E2"/>
<path d="M298.78 116.608C298.94 116.799 299.151 116.938 299.391 117.008C299.629 117.078 299.882 117.075 300.12 117.001C300.356 116.927 300.566 116.784 300.722 116.59C300.879 116.396 300.974 116.161 300.995 115.913C301.017 115.666 300.965 115.417 300.847 115.199C300.727 114.981 300.546 114.803 300.326 114.688C300.106 114.573 299.857 114.525 299.609 114.552C299.363 114.578 299.13 114.678 298.938 114.837C298.812 114.943 298.707 115.072 298.63 115.219C298.554 115.365 298.505 115.525 298.492 115.69C298.477 115.854 298.495 116.02 298.544 116.178C298.594 116.335 298.674 116.482 298.78 116.608Z" fill="#4A90E2"/>
<path d="M228.39 133.816C228.285 133.689 228.155 133.585 228.009 133.508C227.862 133.431 227.703 133.384 227.538 133.369C227.373 133.355 227.208 133.373 227.05 133.422C226.894 133.472 226.747 133.552 226.621 133.658C226.491 133.762 226.384 133.891 226.306 134.038C226.228 134.184 226.18 134.345 226.165 134.51C226.15 134.676 226.168 134.842 226.22 135C226.271 135.158 226.354 135.304 226.463 135.43C226.567 135.558 226.697 135.664 226.844 135.742C226.99 135.819 227.152 135.867 227.316 135.883C227.481 135.898 227.649 135.881 227.807 135.831C227.965 135.782 228.112 135.702 228.24 135.595C228.367 135.489 228.471 135.358 228.548 135.211C228.625 135.064 228.671 134.902 228.686 134.737C228.699 134.572 228.681 134.405 228.63 134.247C228.58 134.089 228.498 133.943 228.39 133.816Z" fill="#4A90E2"/>
<path d="M235.157 136.347C235.317 136.538 235.528 136.677 235.768 136.746C236.006 136.816 236.259 136.814 236.497 136.74C236.733 136.665 236.943 136.522 237.099 136.329C237.255 136.135 237.35 135.9 237.372 135.652C237.394 135.404 237.342 135.156 237.224 134.938C237.104 134.72 236.923 134.542 236.703 134.427C236.483 134.311 236.234 134.264 235.986 134.29C235.739 134.317 235.506 134.416 235.315 134.576C235.188 134.681 235.084 134.811 235.007 134.957C234.93 135.104 234.882 135.264 234.869 135.428C234.854 135.593 234.872 135.759 234.92 135.916C234.97 136.074 235.05 136.22 235.157 136.347Z" fill="#4A90E2"/>
<path d="M246.925 157.509C247.084 157.699 247.296 157.839 247.535 157.909C247.773 157.978 248.028 157.977 248.264 157.902C248.501 157.827 248.71 157.684 248.867 157.491C249.023 157.298 249.118 157.061 249.14 156.815C249.161 156.567 249.11 156.319 248.992 156.1C248.872 155.882 248.69 155.704 248.471 155.588C248.251 155.473 248.001 155.426 247.753 155.453C247.507 155.479 247.274 155.578 247.083 155.738C246.956 155.844 246.851 155.972 246.775 156.119C246.698 156.265 246.65 156.425 246.637 156.59C246.622 156.755 246.64 156.921 246.688 157.078C246.738 157.236 246.818 157.382 246.925 157.509Z" fill="#4A90E2"/>
<path d="M214.638 154.441C214.798 154.63 215.011 154.77 215.249 154.84C215.487 154.91 215.741 154.908 215.978 154.834C216.216 154.759 216.425 154.615 216.58 154.422C216.737 154.229 216.831 153.993 216.853 153.746C216.875 153.498 216.823 153.25 216.705 153.031C216.585 152.813 216.404 152.635 216.184 152.52C215.964 152.405 215.715 152.358 215.468 152.384C215.22 152.411 214.987 152.51 214.796 152.669C214.67 152.775 214.565 152.905 214.488 153.051C214.412 153.197 214.365 153.357 214.35 153.522C214.335 153.687 214.353 153.853 214.402 154.009C214.452 154.168 214.531 154.314 214.638 154.441Z" fill="#4A90E2"/>
<path d="M249.255 85.1958C248.053 79.1873 246.978 72.954 242.298 69C239.292 71.4973 233.917 76.2438 231.515 82.4138C237.933 71.4041 241.571 80.0713 240.937 84.7845C240.907 85.6403 241.381 85.86 242.767 84.976C245.678 83.0781 247.449 88.011 242.04 90.0372C241.346 90.2902 239.733 93.8963 240.144 98.0085C239.554 92.313 249.255 85.1958 249.255 85.1958Z" fill="#4A90E2"/>
<path d="M290.306 85.3556C290.146 85.165 289.935 85.026 289.695 84.956C289.457 84.8861 289.204 84.8886 288.966 84.9629C288.73 85.0373 288.52 85.1803 288.363 85.3739C288.207 85.5675 288.112 85.803 288.091 86.0505C288.069 86.2981 288.12 86.5467 288.239 86.7647C288.358 86.983 288.54 87.1608 288.76 87.276C288.979 87.3912 289.229 87.4387 289.477 87.412C289.723 87.3856 289.956 87.2863 290.148 87.127C290.274 87.0215 290.381 86.8916 290.457 86.7453C290.534 86.5989 290.58 86.4388 290.595 86.2743C290.61 86.1096 290.592 85.9436 290.542 85.786C290.492 85.6283 290.412 85.4821 290.306 85.3556Z" fill="#4A90E2"/>
<path d="M99.8182 209.86C94.3162 214.099 84.4171 221.44 80.9404 225.177C85.3358 226.159 99.0593 223.026 106.965 223.026C109.495 223.03 112.015 222.688 114.454 222.014C115.972 220.337 117.648 218.251 119.387 216.32C112.529 215.361 105.9 213.174 99.8182 209.86Z" fill="#4A90E2"/>
<path d="M165.97 280.307C164.262 287.045 161.005 298.939 160.562 304C164.61 302.07 173.497 291.096 179.702 286.223C181.69 284.658 183.465 282.838 184.982 280.813C185.14 278.568 185.172 275.879 185.362 273.285C179.362 276.751 172.797 279.129 165.97 280.307Z" fill="#4A90E2"/>
<path d="M245.813 212.233L250.806 254.875C257.465 254.134 263.862 251.86 269.497 248.232C275.131 244.604 279.849 239.721 283.281 233.964L245.813 212.233Z" fill="#4A90E2"/>
<path d="M253.024 130.938L258.337 131.444L256.914 136.663L253.024 130.938Z" fill="#4A90E2"/>
<path d="M128.429 106.005C128.581 105.814 128.802 105.69 129.044 105.659C124.013 104.726 119.363 104.768 116.825 103.994L62.4404 100.601C62.3302 100.598 62.223 100.638 62.1413 100.712C62.0594 100.786 62.0093 100.888 62.0012 100.998C61.993 101.109 62.0276 101.217 62.0975 101.303C62.1676 101.388 62.2676 101.443 62.3771 101.456L128.612 107.317C128.246 106.722 128.159 106.346 128.429 106.005Z" fill="#4A90E2"/>
<path d="M278.322 109.466L244.893 34.415C242.222 28.417 237.281 23.7256 231.154 21.3721C225.027 19.0186 218.216 19.1958 212.219 21.8646L43.8491 96.8523C37.853 99.5236 33.1629 104.468 30.8102 110.598C28.4577 116.728 28.6354 123.543 31.304 129.542L87.2687 255.237C89.9387 261.235 94.8809 265.927 101.008 268.28C107.135 270.634 113.946 270.456 119.943 267.787L167.595 246.575" stroke="#3C3C3C" stroke-linecap="round" stroke-linejoin="round"/>
<path d="M198.594 232.757L288.307 192.798C294.303 190.127 298.993 185.182 301.345 179.053C303.698 172.923 303.52 166.11 300.852 160.11L288.213 131.721" stroke="#3C3C3C" stroke-linecap="round" stroke-linejoin="round"/>
<path d="M119.083 189.573L86.5103 116.389C86.1695 115.617 85.6799 114.921 85.0692 114.339C84.4583 113.757 83.7389 113.302 82.9517 113C82.1645 112.697 81.3255 112.553 80.4824 112.576C79.6396 112.599 78.8095 112.788 78.0399 113.133L63.5041 119.582C62.7329 119.923 62.0364 120.413 61.455 121.023C60.8735 121.634 60.4187 122.354 60.1161 123.141C59.8136 123.929 59.6697 124.768 59.6925 125.611C59.7155 126.454 59.9046 127.285 60.2493 128.054L97.349 211.413" stroke="#3C3C3C" stroke-linecap="round" stroke-linejoin="round"/>
<path d="M103.7 225.739L108.346 236.171C108.686 236.943 109.176 237.638 109.786 238.221C110.397 238.803 111.116 239.257 111.903 239.56C112.69 239.863 113.529 240.008 114.372 239.984C115.215 239.961 116.045 239.771 116.814 239.427L131.35 232.938C132.121 232.597 132.818 232.108 133.399 231.497C133.981 230.886 134.436 230.166 134.738 229.379C135.04 228.592 135.185 227.752 135.162 226.908C135.139 226.066 134.95 225.236 134.605 224.466L129.549 213.053" stroke="#3C3C3C" stroke-linecap="round" stroke-linejoin="round"/>
<path d="M146.645 199.468L153.912 215.844C154.253 216.616 154.743 217.311 155.353 217.894C155.964 218.476 156.683 218.93 157.47 219.233C158.257 219.536 159.096 219.68 159.94 219.657C160.781 219.634 161.611 219.444 162.381 219.1L175.432 213.315" stroke="#3C3C3C" stroke-linecap="round" stroke-linejoin="round"/>
<path d="M172.019 185.811L180.361 204.526" stroke="#3C3C3C" stroke-linecap="round" stroke-linejoin="round"/>
<path d="M159.727 158.213L148.825 133.713C148.484 132.941 147.995 132.245 147.384 131.663C146.774 131.081 146.054 130.626 145.267 130.324C144.48 130.021 143.641 129.877 142.798 129.9C141.956 129.923 141.125 130.112 140.356 130.457L125.82 136.906C125.049 137.247 124.353 137.736 123.771 138.347C123.19 138.958 122.735 139.678 122.432 140.465C122.13 141.252 121.986 142.092 122.009 142.935C122.032 143.778 122.221 144.609 122.566 145.378L135.964 175.505" stroke="#3C3C3C" stroke-linecap="round" stroke-linejoin="round"/>
<path d="M210.389 149.298L201.668 129.665C201.327 128.893 200.838 128.197 200.227 127.615C199.617 127.033 198.897 126.578 198.11 126.276C197.324 125.973 196.484 125.829 195.641 125.852C194.799 125.875 193.969 126.064 193.199 126.409L178.663 132.889C177.892 133.23 177.195 133.72 176.614 134.331C176.032 134.942 175.578 135.661 175.275 136.449C174.973 137.236 174.828 138.075 174.851 138.918C174.875 139.762 175.064 140.592 175.408 141.362L183.308 159.165" stroke="#3C3C3C" stroke-linecap="round" stroke-linejoin="round"/>
<path d="M255.854 177.497L268.084 172.028C268.855 171.687 269.552 171.198 270.133 170.587C270.715 169.977 271.169 169.256 271.471 168.469C271.774 167.682 271.919 166.842 271.895 165.998C271.872 165.156 271.683 164.326 271.338 163.556L257.789 133.081" stroke="#3C3C3C" stroke-linecap="round" stroke-linejoin="round"/>
<path d="M240.624 94.5446L246.311 107.316" stroke="#3C3C3C" stroke-linecap="round" stroke-linejoin="round"/>
<path d="M233.607 78.7946L223.242 55.4642C222.901 54.6925 222.412 53.9959 221.802 53.4142C221.191 52.8325 220.471 52.3773 219.684 52.0748C218.898 51.7721 218.058 51.6282 217.216 51.651C216.373 51.674 215.543 51.8632 214.773 52.2081L200.237 58.6887C199.466 59.0293 198.77 59.5192 198.188 60.13C197.606 60.7409 197.152 61.4605 196.85 62.2479C196.547 63.0352 196.404 63.8746 196.425 64.7178C196.449 65.5609 196.638 66.3913 196.983 67.161L213.509 104.308" stroke="#3C3C3C" stroke-linecap="round" stroke-linejoin="round"/>
<path d="M234.555 94.4514C235.318 94.4547 236.08 94.3935 236.833 94.2684L233.642 97.3032" stroke="#3C3C3C" stroke-linecap="round" stroke-linejoin="round"/>
<path d="M256.912 136.344L253.074 130.52L258.351 131.044" stroke="#3C3C3C" stroke-linecap="round" stroke-linejoin="round"/>
<path d="M131.192 100.924C127.09 100.644 122.977 100.58 118.868 100.734C114.601 101.012 112.736 103.426 120.385 104.211C125.978 104.784 131.824 105.097 136.943 107.784" stroke="#3C3C3C" stroke-linecap="round" stroke-linejoin="round"/>
<path d="M127.527 98.022C128.064 95.5262 129.739 94.6943 134.858 95.1768" stroke="#3C3C3C" stroke-linecap="round" stroke-linejoin="round"/>
<path d="M125.504 100.646C126.231 97.9837 127.716 97.453 132.583 97.8956" stroke="#3C3C3C" stroke-linecap="round" stroke-linejoin="round"/>
<path d="M129.675 95.3665C130.402 92.8375 132.077 92.3816 136.943 92.7043C141.832 93.2727 146.685 94.1171 151.479 95.2334" stroke="#3C3C3C" stroke-linecap="round" stroke-linejoin="round"/>
<path d="M151.514 95.2401C148.527 100.187 147.363 106.024 148.225 111.739C144.076 112.617 139.773 112.434 135.714 111.205C130.559 109.874 126.328 104.96 129.893 105.381C131.344 105.657 132.77 106.047 134.159 106.546" stroke="#3C3C3C" stroke-linecap="round" stroke-linejoin="round"/>
<path d="M240.243 97.5794C239.624 91.9689 248.936 85.0224 249.302 84.7512C248.106 78.7614 247.023 72.5602 242.361 68.6202C237.911 72.3241 234.247 76.8822 231.586 82.0258" stroke="#3C3C3C" stroke-linecap="round" stroke-linejoin="round"/>
<path fill-rule="evenodd" clip-rule="evenodd" d="M167.5 185.306C177.344 186.224 187.074 188.119 196.544 190.963C192.135 194.141 187.877 197.495 183.774 201.024C179.641 204.583 176.624 209.258 175.084 214.491C170.382 230.908 166.94 247.66 164.783 264.599C173.364 267.569 182.345 269.221 191.421 269.499C193.269 253.531 196.738 237.793 201.773 222.527L242.109 203.363C263.786 192.049 253.39 164.827 253.39 164.827C254.243 150.633 255.412 140.63 258.351 131.051C269.542 132.037 280.79 132.189 292.005 131.507C295.068 131.225 297.932 129.868 300.089 127.675C302.246 125.482 303.558 122.595 303.791 119.527L306.663 82.1905C299.924 80.2573 292.876 79.6455 285.906 80.3886L283.567 109.371C245.804 110.003 242.265 106.494 241.222 103.776C238.977 97.8639 241.126 89.9906 242.139 89.6129C247.541 87.5864 245.768 82.6498 242.865 84.5532C241.781 85.2653 240.906 85.5265 241.051 84.2404C241.585 79.5001 237.961 71.1426 231.614 82.0242C225.191 93.0055 231.004 94.4531 234.553 94.4514C234.553 94.4514 233.098 98.621 232.278 102.258C231.709 104.786 228.802 104.669 222.924 104.629C196.314 104.446 177.8 100.425 152.141 94.102C150.201 96.9999 148.887 100.271 148.284 103.706C147.679 107.141 147.799 110.664 148.633 114.05C171.894 119.788 187.591 123.534 210.576 124.688C209.656 137.946 210.055 151.262 211.77 164.441C196.948 160.992 181.9 158.594 166.74 157.265C162.775 156.915 158.819 158.028 155.617 160.394C139.593 172.179 124.174 184.766 109.42 198.109C113.684 205.104 119.126 211.306 125.504 216.444C138.646 204.955 152.69 194.543 167.5 185.306V185.306Z" stroke="#3C3C3C" stroke-linecap="round" stroke-linejoin="round"/>
<path d="M220.145 176.359C211.946 180.667 204.059 185.545 196.544 190.956" stroke="#3C3C3C" stroke-linecap="round" stroke-linejoin="round"/>
<path d="M253.421 164.815C238.189 161.338 223.969 159.657 211.361 160.927" stroke="#3C3C3C" stroke-linecap="round" stroke-linejoin="round"/>
<path d="M221.378 104.629L231.774 132.954L251.62 108.359" stroke="#3C3C3C" stroke-linecap="round" stroke-linejoin="round"/>
<path d="M231.268 103.839C232.717 104.999 234.48 105.694 236.329 105.835C238.179 105.976 240.028 105.556 241.635 104.629" stroke="#3C3C3C" stroke-linecap="round" stroke-linejoin="round"/>
<path d="M225.138 104.661L228.74 113.892L236.166 105.83L241.635 114.682L247.512 107.601" stroke="#3C3C3C" stroke-linecap="round" stroke-linejoin="round"/>
<path d="M236.168 105.83C233.988 114.24 229.216 147.939 229.682 160.932" stroke="#3C3C3C" stroke-linecap="round" stroke-linejoin="round"/>
<path d="M244.484 162.955C244.484 162.955 242.588 176.765 253.395 181.101" stroke="#3C3C3C" stroke-linecap="round" stroke-linejoin="round"/>
<path d="M250.388 179.457C232.75 188.142 215.841 198.239 199.828 209.648C194.668 213.371 190.897 218.71 189.116 224.822C185.085 239.134 182.064 253.713 180.079 268.449" stroke="#3C3C3C" stroke-linecap="round" stroke-linejoin="round"/>
<path d="M207.158 183.851C195.313 180.492 183.272 177.873 171.103 176.011C167.059 175.404 162.935 176.327 159.537 178.604C145.183 188.137 131.461 198.591 118.458 209.9" stroke="#3C3C3C" stroke-linecap="round" stroke-linejoin="round"/>
<path fill-rule="evenodd" clip-rule="evenodd" d="M122.028 213.378C117.78 209.533 114.032 205.167 110.874 200.385C108.346 202.851 104.174 206.17 99.9717 209.426C106.06 212.722 112.681 214.92 119.532 215.915C120.307 215.015 121.141 214.168 122.028 213.378V213.378Z" stroke="#3C3C3C" stroke-linecap="round" stroke-linejoin="round"/>
<path fill-rule="evenodd" clip-rule="evenodd" d="M81.107 224.695C80.1906 225.707 79.705 226.439 79.873 226.845C80.9174 229.371 95.9272 225.644 103.954 225.644C106.309 225.662 108.653 225.321 110.905 224.632C112.325 223.862 113.57 222.807 114.564 221.534C112.127 222.209 109.609 222.549 107.08 222.546C99.2136 222.551 85.4678 225.712 81.107 224.695Z" stroke="#3C3C3C" stroke-linecap="round" stroke-linejoin="round"/>
<path fill-rule="evenodd" clip-rule="evenodd" d="M99.9717 209.395C94.4733 213.631 84.5827 220.965 81.1067 224.702C85.499 225.682 99.2133 222.552 107.113 222.552C109.642 222.554 112.16 222.214 114.597 221.541C116.114 219.865 117.789 217.779 119.527 215.85C112.673 214.892 106.049 212.706 99.9717 209.395V209.395Z" stroke="#3C3C3C" stroke-linecap="round" stroke-linejoin="round"/>
<path fill-rule="evenodd" clip-rule="evenodd" d="M185.86 269.176C180.177 268.657 174.557 267.589 169.08 265.984C168.606 269.461 167.374 274.645 166.087 279.793C172.906 278.614 179.463 276.238 185.457 272.775C185.544 271.579 185.67 270.283 185.86 269.176Z" stroke="#3C3C3C" stroke-linecap="round" stroke-linejoin="round"/>
<path fill-rule="evenodd" clip-rule="evenodd" d="M160.675 303.477C160.548 304.836 160.645 305.718 161.022 305.911C163.466 307.157 172.891 295.018 179.224 290.073C181.085 288.632 182.715 286.916 184.059 284.983C184.709 283.499 185.043 281.893 185.038 280.273C183.531 282.304 181.755 284.123 179.761 285.679C173.562 290.532 164.751 301.548 160.675 303.477Z" stroke="#3C3C3C" stroke-linecap="round" stroke-linejoin="round"/>
<path fill-rule="evenodd" clip-rule="evenodd" d="M166.078 279.798C164.372 286.532 161.117 298.419 160.675 303.477C164.72 301.548 173.601 290.58 179.801 285.71C181.788 284.146 183.561 282.328 185.078 280.304C185.236 278.06 185.268 275.373 185.457 272.78C179.462 276.245 172.901 278.62 166.078 279.798V279.798Z" stroke="#3C3C3C" stroke-linecap="round" stroke-linejoin="round"/>
<path d="M23.2777 169.499L7.85718 134.345" stroke="#3C3C3C" stroke-linecap="round" stroke-linejoin="round"/>
<path d="M1 151.985L7.85713 134.345L25.4897 141.237" stroke="#3C3C3C" stroke-linecap="round" stroke-linejoin="round"/>
<path fill-rule="evenodd" clip-rule="evenodd" d="M302.654 235.444C302.983 236.197 303.081 237.033 302.936 237.843C302.792 238.653 302.409 239.402 301.839 239.994C301.268 240.588 300.533 240.998 299.73 241.174C298.927 241.349 298.088 241.282 297.323 240.981C296.557 240.68 295.898 240.157 295.429 239.482C294.96 238.806 294.701 238.006 294.687 237.182C294.672 236.36 294.902 235.55 295.347 234.858C295.792 234.166 296.432 233.622 297.187 233.294C298.198 232.86 299.339 232.843 300.362 233.246C301.385 233.648 302.208 234.437 302.654 235.444V235.444Z" stroke="#3C3C3C" stroke-linecap="round" stroke-linejoin="round"/>
<path fill-rule="evenodd" clip-rule="evenodd" d="M316.652 240.853C316.981 241.607 317.08 242.442 316.935 243.252C316.79 244.062 316.408 244.811 315.837 245.403C315.267 245.997 314.532 246.407 313.728 246.583C312.925 246.758 312.087 246.691 311.322 246.39C310.555 246.089 309.897 245.567 309.428 244.891C308.959 244.216 308.699 243.415 308.686 242.592C308.671 241.77 308.9 240.959 309.346 240.267C309.79 239.575 310.43 239.031 311.185 238.703C312.197 238.271 313.338 238.252 314.36 238.655C315.383 239.058 316.206 239.848 316.652 240.853V240.853Z" stroke="#3C3C3C" stroke-linecap="round" stroke-linejoin="round"/>
<path d="M300.884 252.2L310.743 227.193" stroke="#3C3C3C" stroke-linecap="round" stroke-linejoin="round"/>
<path d="M302.243 81.1074C302.288 77.5041 302.689 73.9142 303.444 70.3906C304.151 67.5113 305.178 64.7207 306.509 62.0713C308.471 58.1846 308.199 57.5374 304.645 60.6804C303.276 61.8738 302.035 63.2089 300.947 64.6636C297.24 69.4054 294.114 74.574 291.634 80.0591" stroke="#3C3C3C" stroke-linecap="round" stroke-linejoin="round"/>
<path d="M298.261 68.3673C296.176 70.8332 295.354 64.3841 294.248 61.6338C293.332 59.3576 291.635 57.3344 291.753 64.1295C291.594 69.4651 291.108 74.7861 290.3 80.0625" stroke="#3C3C3C" stroke-linecap="round" stroke-linejoin="round"/>
<path d="M305.877 63.3725C307.294 61.5697 308.881 59.9077 310.617 58.4093C314.015 55.6223 314.539 56.7055 314.156 57.3028C312.659 59.6521 309.832 63.1828 308.501 65.3957C306.228 69.2302 304.212 73.2118 302.466 77.3138" stroke="#3C3C3C" stroke-linecap="round" stroke-linejoin="round"/>
<path d="M310.806 62.0131C311.407 61.5705 311.503 61.5139 311.786 61.3176C315.453 58.8035 315.896 59.9599 315.445 60.5273C313.712 62.7452 310.801 65.7451 309.062 67.7034C306.855 69.811 304.979 72.2412 303.5 74.9112" stroke="#3C3C3C" stroke-linecap="round" stroke-linejoin="round"/>
<path d="M98.2655 54.9318L84.0457 78.8945L56.8999 72.6983" stroke="#3C3C3C" stroke-linecap="round" stroke-linejoin="round"/>
<path d="M109.451 67.4506C106.396 60.7759 100.832 55.5766 93.968 52.9815C87.1035 50.3865 79.493 50.6053 72.7889 53.5906C66.0849 56.5759 60.8288 62.0863 58.1617 68.9256C55.4947 75.7648 55.6323 83.3804 58.5444 90.1188" stroke="#3C3C3C" stroke-linecap="round" stroke-linejoin="round"/>
<path d="M277.943 59.6738L281.103 51.5176L272.982 48.4512L276.142 40.2634L267.926 36.944L271.086 28.7879L262.712 25.5001" stroke="#3C3C3C" stroke-linecap="round" stroke-linejoin="round"/>
<path d="M281.387 45.9221L284.547 37.7659L276.457 34.6995L279.617 26.5117L271.37 23.1923L274.562 15.0362L266.156 11.78" stroke="#3C3C3C" stroke-linecap="round" stroke-linejoin="round"/>
<path d="M285.397 194.099C288.098 199.982 289.417 206.405 289.252 212.877C288.858 222.642 285.192 231.99 278.843 239.417C272.493 246.843 263.829 251.916 254.248 253.818C244.665 255.719 234.723 254.34 226.02 249.901C217.316 245.463 210.361 238.224 206.27 229.349" stroke="#3C3C3C" stroke-linecap="round" stroke-linejoin="round"/>
<path d="M283.315 233.484L245.869 211.797L250.862 254.382" stroke="#3C3C3C" stroke-linecap="round" stroke-linejoin="round"/>
<path d="M245.869 211.797L212.972 239.712" stroke="#3C3C3C" stroke-linecap="round" stroke-linejoin="round"/>
<path d="M152.901 1L162.887 22.5285" stroke="#3C3C3C" stroke-linecap="round" stroke-linejoin="round"/>
<path d="M168.67 6.7536L147.118 16.7749" stroke="#3C3C3C" stroke-linecap="round" stroke-linejoin="round"/>
<path fill-rule="evenodd" clip-rule="evenodd" d="M64.9578 237.435L58.7959 246.067L54.4036 236.392L64.9578 237.435Z" stroke="#3C3C3C" stroke-linecap="round" stroke-linejoin="round"/>
<path d="M211.771 164.441L214.426 165.01" stroke="#3C3C3C" stroke-linecap="round" stroke-linejoin="round"/>
</svg>
