<svg width="314" height="307" viewBox="0 0 314 307" fill="none" xmlns="http://www.w3.org/2000/svg">
<path d="M183.603 145.106C163.323 138.561 158.461 118.08 158.461 118.08C159.154 117.086 159.827 116.095 160.455 115.127L161.111 104.56C150.517 101.63 156.531 88.7241 156.531 88.7241C151.673 81.6204 147.618 73.9989 144.442 66C138.56 66.5734 132.926 68.6559 128.084 72.0461C132.133 85.5706 138.971 102.268 153.502 124.515C147.249 132.325 137.043 144.673 132.126 151.095L92.9339 133.539L84 152.027L127.991 174.564C131.029 175.985 134.468 176.303 137.715 175.46C140.962 174.618 143.814 172.669 145.78 169.95L155.407 156.67C159.271 162.593 162.231 167.456 172.954 171.945C184.361 166.81 189.3 160.59 193.578 152.027C189.875 150.318 186.501 147.976 183.603 145.106Z" fill="#4A90E2"/>
<path d="M184.133 225L182.544 216.302L219.68 209.446L221.269 218.142L184.133 225Z" fill="#4A90E2"/>
<path d="M216.628 217.674L210.802 211.067L242.175 183.386L248 189.993L216.628 217.674Z" fill="#4A90E2"/>
<path fill-rule="evenodd" clip-rule="evenodd" d="M59.4913 1.49241C71.4864 0.0250406 83.6544 1.85183 94.6905 6.77686C115.926 16.2412 128.968 34.7001 132.861 54.8628C132.861 54.8628 132.956 57.581 133.161 59.6742C131.865 60.4577 129.312 58.2808 127.08 56.3788C125.068 54.663 123.318 53.1706 122.989 54.2773C122.672 55.3423 123.433 56.4823 124.64 58.2922C126.258 60.7193 128.68 64.351 130.387 70.6222L128.743 71.9588C129.241 73.9525 130.418 77.3042 131.805 81.2532C131.991 81.7838 132.181 82.3251 132.374 82.8753C129.615 94.81 123.508 106.176 113.858 115.47C105.608 123.454 95.4427 129.162 84.3552 132.051C84.1078 132.116 82.4276 131.024 80.43 129.725C77.6994 127.951 74.3758 125.79 73.3077 125.672C71.6112 125.483 75.6204 130.657 77.3521 132.891C77.5082 133.093 77.646 133.271 77.7593 133.418C67.4873 135.01 56.9609 134.176 47.0302 130.953C35.5355 127.223 25.2725 120.432 17.3418 111.31C9.41119 102.188 4.11191 91.0786 2.01242 79.1726C-0.0870763 67.2665 1.09235 55.0135 5.42421 43.727C9.75611 32.4406 17.0769 22.5467 26.6019 15.1064C36.1267 7.66604 47.4963 2.95978 59.4913 1.49241ZM61.2451 15.7476C70.6285 14.5997 80.1473 16.0288 88.7807 19.8816C122.799 35.0433 129.939 79.7127 103.774 104.909C96.98 111.485 88.5247 116.087 79.3152 118.22C70.1056 120.354 60.4892 119.94 51.4972 117.021C42.5051 114.103 34.4767 108.791 28.2727 101.655C22.0687 94.5193 17.9234 85.8285 16.281 76.5147C14.6386 67.2011 15.5613 57.6157 18.95 48.7866C22.3387 39.9577 28.0656 32.2179 35.5166 26.3975C42.9677 20.577 51.8619 16.8955 61.2451 15.7476Z" fill="#CBE0F8"/>
<path d="M248.954 202.22L252.765 196.439L246.892 191.814L243.801 194.595L248.954 202.22Z" fill="#CBE0F8"/>
<path d="M269.133 209.227L264.201 220.576C262.713 224.034 260.15 226.919 256.891 228.8L281.506 248L296 230.126L269.133 209.227Z" fill="#CBE0F8"/>
<path d="M243.177 122.723C247.279 123.296 251.443 122.254 254.792 119.818C258.142 117.381 260.416 113.74 261.136 109.66C256.081 108.033 250.752 107.435 245.462 107.902C240.173 108.369 235.03 109.891 230.338 112.378C231.348 115.1 233.074 117.498 235.335 119.319C237.593 121.14 240.304 122.316 243.177 122.723Z" fill="#CBE0F8"/>
<path d="M149.065 116.472L126.326 98.7858C123.057 105.718 118.326 111.861 112.458 116.79L141.722 139.883L154.155 124.477L149.065 116.472Z" fill="#CBE0F8"/>
<path d="M167.305 141.346L156.065 156.847C156.856 158.301 157.777 159.681 158.814 160.971L167.305 141.346Z" fill="#CBE0F8"/>
<path d="M161.559 107.722L166.025 104.567C164.609 104.66 163.189 104.628 161.778 104.473L161.559 107.722Z" fill="#CBE0F8"/>
<path d="M191.263 124.004C191.591 121.484 191.019 118.93 189.648 116.791C188.275 114.652 186.194 113.068 183.767 112.316C184.078 111.424 184.173 110.471 184.048 109.534C181.987 94.4731 178.863 85.1915 173.709 79.8805C170.21 76.2224 163.059 76.8179 158.811 82.1602C154.592 87.5107 155.652 94.5685 155.624 95.154C156.052 89.8966 158.505 85.0111 162.465 81.5286C163.573 80.6182 164.877 79.9765 166.275 79.6535C166.056 84.4053 169.836 91.9352 174.396 90.0601C177.446 88.815 177.813 94.3366 171.804 94.3366C170.179 107.367 170.679 122.298 176.677 134.461L177.645 136.304C180.593 141.675 184.806 146.245 189.921 149.617C193.318 149.794 196.645 148.615 199.174 146.338C201.701 144.062 203.22 140.873 203.399 137.475C203.576 134.077 202.398 130.748 200.122 128.219C197.845 125.691 194.659 124.17 191.263 123.992V124.004Z" fill="#CBE0F8"/>
<path fill-rule="evenodd" clip-rule="evenodd" d="M248.789 202.077L252.596 196.3L246.73 191.678L243.642 194.457L248.789 202.077Z" stroke="#3C3C3C" stroke-linejoin="round"/>
<path fill-rule="evenodd" clip-rule="evenodd" d="M268.946 209.079L264.019 220.42C262.533 223.875 259.973 226.758 256.718 228.638L281.305 247.824L295.783 229.963L268.946 209.079Z" stroke="#3C3C3C"/>
<path fill-rule="evenodd" clip-rule="evenodd" d="M149.011 116.39L126.297 98.7161C123.032 105.644 118.306 111.782 112.445 116.707L141.677 139.784L154.095 124.389L149.011 116.39Z" stroke="#3C3C3C"/>
<path d="M156.624 87.8796C151.913 80.9849 148.017 73.5658 145.017 65.7712C139.126 66.3434 133.482 68.4328 128.638 71.8362C132.694 85.3879 139.526 102.095 154.092 124.391" stroke="#3C3C3C" stroke-linecap="round" stroke-linejoin="round"/>
<path d="M133.63 62.3985C132.755 57.8429 132.42 53.2 132.631 48.5658C132.538 46.1712 132.703 43.7735 133.124 41.4144C134.273 34.9435 135.848 35.5746 136.369 41.8204C137.642 57.1192 141.296 62.1799 142.639 66.1148" stroke="#3C3C3C" stroke-linecap="round" stroke-linejoin="round"/>
<path d="M132.848 43.3818C131.802 41.1736 130.447 39.1259 128.823 37.3004C128.33 36.8271 127.181 36.7794 128.605 40.7356C128.91 41.5804 130.13 45.2326 130.508 46.5442C131.384 49.1608 132.092 51.8306 132.63 54.5371" stroke="#3C3C3C" stroke-linecap="round" stroke-linejoin="round"/>
<path d="M133.068 58.7448C132.85 61.8365 128.079 57.0552 125.829 55.2472C123.805 53.62 120.903 52.5862 124.987 58.495C127.407 62.2648 129.238 66.3824 130.416 70.7055" stroke="#3C3C3C" stroke-linecap="round" stroke-linejoin="round"/>
<path d="M251.004 205.325L243.642 194.457" stroke="#3C3C3C" stroke-linecap="round" stroke-linejoin="round"/>
<path d="M161.751 104.319C161.751 104.319 161.406 108.645 161.063 114.985C160.377 115.953 159.721 116.921 159.035 117.943" stroke="#3C3C3C" stroke-linecap="round" stroke-linejoin="round"/>
<path d="M165.954 104.587L161.505 107.608" stroke="#3C3C3C" stroke-linecap="round" stroke-linejoin="round"/>
<path d="M213.003 209.697L188.074 182.186" stroke="#3C3C3C" stroke-linecap="round" stroke-linejoin="round"/>
<path d="M167.2 141.215L158.746 160.825" stroke="#3C3C3C" stroke-linecap="round" stroke-linejoin="round"/>
<path d="M231.473 193.395C221.788 177.815 207.722 165.442 191.039 157.829" stroke="#3C3C3C" stroke-linecap="round" stroke-linejoin="round"/>
<path d="M185.739 215.869L173.628 171.88" stroke="#3C3C3C" stroke-linecap="round" stroke-linejoin="round"/>
<path d="M221.177 214.286L221.926 218.189L184.736 225.06L183.145 216.347L211.443 211.133" stroke="#3C3C3C" stroke-linecap="round" stroke-linejoin="round"/>
<path d="M189.791 149.553C193.132 149.642 196.378 148.422 198.834 146.152C201.291 143.882 202.766 140.742 202.945 137.401C203.124 134.059 201.992 130.78 199.792 128.261C197.591 125.742 194.494 124.182 191.162 123.913C191.49 121.395 190.919 118.842 189.549 116.705C188.178 114.568 186.099 112.984 183.675 112.233C184.685 109.303 181.561 90.8858 175.937 82.6644C170.659 74.9492 162.943 76.7556 158.715 82.099C154.486 87.4424 155.56 94.4969 155.532 95.0836" stroke="#3C3C3C" stroke-linecap="round" stroke-linejoin="round"/>
<path d="M248.789 202.077L270.038 169.726C274.092 163.199 273.936 161.138 275.746 156.642C284.233 152.02 303.483 146.587 313 145.337C306.011 156.268 289.631 162.73 283.172 176.284L263.985 220.375C262.85 222.987 261.101 225.285 258.885 227.072C256.672 228.858 254.057 230.083 251.267 230.638C248.475 231.194 245.593 231.064 242.864 230.262C240.133 229.458 237.638 228.005 235.592 226.028L222.362 213.257" stroke="#3C3C3C" stroke-linecap="round" stroke-linejoin="round"/>
<path fill-rule="evenodd" clip-rule="evenodd" d="M217.278 217.721L211.443 211.102L242.862 183.373L248.695 189.991L217.278 217.721Z" stroke="#3C3C3C" stroke-linecap="round" stroke-linejoin="round"/>
<path d="M77.341 135.906C80.742 135.563 75.0879 130.165 74.1584 128.51C72.9021 126.266 71.5702 123.668 77.4346 127.792C82.1855 130.793 87.1135 133.504 92.1916 135.91" stroke="#3C3C3C" stroke-linecap="round" stroke-linejoin="round"/>
<path d="M190.727 223.936L193.315 233.242C195.003 239.221 198.954 244.307 204.329 247.418C209.696 250.541 258.711 274.086 258.711 274.086C271.785 281.482 277.119 298.255 287.541 306C286.948 296.413 282.829 276.803 278.804 268.032C274.51 265.945 272.419 265.937 266.449 261.663L219.617 228.718L216.935 219.1" stroke="#3C3C3C" stroke-linecap="round" stroke-linejoin="round"/>
<path d="M167.2 141.215C165.423 143.526 154.767 158.284 146.327 169.944C144.357 172.666 141.501 174.615 138.25 175.458C134.998 176.302 131.556 175.984 128.513 174.563L84.4584 151.989L93.3806 133.472L132.63 151.021" stroke="#3C3C3C" stroke-linecap="round" stroke-linejoin="round"/>
<path d="M184.205 145.025C187.127 147.89 190.507 150.246 194.205 151.996C190.066 161.529 182.985 167.701 173.565 171.943C162.797 167.431 159.85 162.605 155.962 156.646" stroke="#3C3C3C" stroke-linecap="round" stroke-linejoin="round"/>
<path d="M241.053 184.934C221.724 159.004 201.242 154.9 194.205 151.996" stroke="#3C3C3C" stroke-linecap="round" stroke-linejoin="round"/>
<path d="M159.027 117.951C159.027 117.951 163.894 138.467 184.205 145.025C181.074 141.934 178.489 138.333 176.561 134.376C170.555 122.238 170.071 107.302 171.693 94.2816H172.505C177.431 94.0005 177.339 88.7508 174.283 90.0082C169.726 91.877 165.954 84.3557 166.172 79.6106C164.778 79.9354 163.476 80.5757 162.365 81.4827C160.058 83.5048 158.248 86.0329 157.079 88.8699C155.908 91.707 155.408 94.7761 155.618 97.8384C156.199 101.808 158.93 104.98 165.954 104.592" stroke="#3C3C3C" stroke-linecap="round" stroke-linejoin="round"/>
<path d="M159.027 117.951C156.094 122.389 133.224 149.522 130.166 154.488" stroke="#3C3C3C" stroke-linecap="round" stroke-linejoin="round"/>
<path d="M65.7061 139.466C64.2084 139.654 61.121 140.28 60.2145 140.466C56.0975 141.314 56.6279 142.402 57.2832 142.464C59.9337 142.716 64.2396 142.685 66.7046 142.995C70.6673 143.497 78.3118 144.213 81.3072 145.993" stroke="#3C3C3C" stroke-linecap="round" stroke-linejoin="round"/>
<path d="M66.4858 142.964C65.8289 143.214 65.2377 143.432 64.9569 143.557C61.0254 145.056 61.7447 146.064 62.3983 146.023C65.0521 145.867 69.2956 145.088 71.7902 144.992C74.7902 144.936 77.7887 145.166 80.7452 145.679" stroke="#3C3C3C" stroke-linecap="round" stroke-linejoin="round"/>
<path fill-rule="evenodd" clip-rule="evenodd" d="M180.461 53.2501C180.412 54.0532 180.126 54.8237 179.638 55.4639C179.152 56.1043 178.487 56.5859 177.727 56.8475C176.966 57.1092 176.145 57.1395 175.369 56.9343C174.59 56.7292 173.892 56.2981 173.358 55.6952C172.826 55.0923 172.485 54.345 172.376 53.5478C172.268 52.7505 172.399 51.9389 172.753 51.2158C173.104 50.4928 173.664 49.8907 174.359 49.4858C175.053 49.0808 175.851 48.8911 176.654 48.9406C177.728 49.0099 178.732 49.502 179.446 50.3095C180.159 51.1171 180.524 52.1742 180.461 53.2501V53.2501Z" stroke="#3C3C3C" stroke-linecap="round" stroke-linejoin="round"/>
<path d="M288.321 151.49C288.923 145.653 288.227 139.755 286.281 134.22C284.337 128.685 281.19 123.649 277.071 119.475C272.951 115.3 267.959 112.091 262.452 110.076C256.946 108.062 251.062 107.292 245.224 107.823C239.386 108.354 233.736 110.172 228.683 113.146C223.63 116.121 219.298 120.179 215.995 125.028C212.695 129.877 210.509 135.397 209.591 141.193C208.674 146.988 209.052 152.915 210.694 158.547" stroke="#3C3C3C" stroke-linecap="round" stroke-linejoin="round"/>
<path d="M246.106 187.054C250.571 187.371 255.056 186.916 259.367 185.711" stroke="#3C3C3C" stroke-linecap="round" stroke-linejoin="round"/>
<path fill-rule="evenodd" clip-rule="evenodd" d="M247.447 90.9401C244.319 90.5075 241.135 91.0126 238.292 92.3914C235.451 93.7704 233.083 95.9612 231.485 98.6871C229.887 101.413 229.133 104.552 229.317 107.707C229.503 110.862 230.616 113.891 232.521 116.412C234.425 118.933 237.032 120.833 240.015 121.871C242.997 122.909 246.221 123.039 249.277 122.245C252.333 121.45 255.084 119.767 257.186 117.408C259.286 115.048 260.641 112.118 261.078 108.989C261.657 104.787 260.549 100.526 257.994 97.1421C255.438 93.7582 251.645 91.5275 247.447 90.9401V90.9401Z" stroke="#3C3C3C" stroke-linecap="round" stroke-linejoin="round"/>
<path d="M129.48 43.2881C125.501 33.1302 119.09 24.1062 110.81 17.0101C102.53 9.91371 92.634 4.96228 81.9934 2.59134C71.3526 0.22041 60.2928 0.502505 49.7867 3.41285C39.2804 6.32322 29.6498 11.7727 21.7413 19.2819C13.833 26.7911 7.88924 36.1302 4.43288 46.4778C0.976528 56.8254 0.113441 67.8643 1.91951 78.6241C3.72556 89.3837 8.14547 99.5344 14.7905 108.183C21.4355 116.833 30.102 123.715 40.0281 128.226C51.8546 133.506 64.9453 135.283 77.75 133.347" stroke="#3C3C3C" stroke-linecap="round" stroke-linejoin="round"/>
<path d="M132.288 82.6957C130.267 91.4444 126.492 99.6914 121.194 106.938C115.895 114.184 109.183 120.279 101.462 124.853C96.1265 128.006 90.3697 130.382 84.3649 131.911" stroke="#3C3C3C" stroke-linecap="round" stroke-linejoin="round"/>
<path fill-rule="evenodd" clip-rule="evenodd" d="M88.7938 19.8682C80.1702 16.0182 70.6619 14.59 61.2889 15.7371C51.9161 16.8842 43.0318 20.5631 35.5889 26.3794C28.1462 32.1957 22.4257 39.9299 19.0407 48.7526C15.6558 57.5754 14.7342 67.1539 16.3747 76.4609C18.0153 85.7681 22.156 94.4527 28.3531 101.584C34.5502 108.714 42.5697 114.022 51.5518 116.939C60.5338 119.855 70.1395 120.269 79.3389 118.137C88.5381 116.005 96.9841 111.406 103.771 104.835C129.907 79.6566 122.775 35.0191 88.7938 19.8682Z" stroke="#3C3C3C" stroke-linecap="round" stroke-linejoin="round"/>
<path d="M41.4321 176.658L55.2859 187.649L69.4189 165.947" stroke="#3C3C3C" stroke-linecap="round" stroke-linejoin="round"/>
<path d="M162.74 186.308L149.26 188.024" stroke="#3C3C3C" stroke-linecap="round" stroke-linejoin="round"/>
<path d="M156.843 193.926L155.126 180.406" stroke="#3C3C3C" stroke-linecap="round" stroke-linejoin="round"/>
<path d="M85.9856 148.804C81.6167 145.916 76.99 143.441 72.1647 141.408C68.2907 139.99 64.269 139.016 60.1764 138.503C54.1544 137.764 53.4663 136.141 60.0204 135.255C62.432 134.963 64.8627 134.859 67.2906 134.943C71.894 135.003 76.477 135.569 80.9571 136.63" stroke="#3C3C3C" stroke-linecap="round" stroke-linejoin="round"/>
</svg>
